<?xml version="1.0" encoding="utf-8"?>
<!-- Generator: Adobe Illustrator 24.3.0, SVG Export Plug-In . SVG Version: 6.00 Build 0)  -->
<svg version="1.1" id="OBJECTS" xmlns="http://www.w3.org/2000/svg" xmlns:xlink="http://www.w3.org/1999/xlink" x="0px" y="0px"
	 viewBox="0 0 500 261.11" style="enable-background:new 0 0 500 261.11;" xml:space="preserve">
<style type="text/css">
	.st0{fill:none;stroke:#fff;stroke-width:2;stroke-miterlimit:5;}
	.st0{
	stroke-dasharray:1500;
		stroke-dashoffset:0;
		-webkit-animation: dash 4s linear forwards infinite;
		-o-animation: dash 4s linear forwards ;
		-moz-animation: dash 4s linear forwards ;
		animation: dash 4s linear forwards infinite;
}
	
	@-webkit-keyframes dash{
		from{
			stroke-dashoffset:1500;
		}
		to{
			stroke-dashoffset:0;
		}
	}
</style>
<g>
	<path class="st0" d="M255.12,232.32c-4.14,0-7.7,2.49-9.29,6.04c-22.8-1.1-43.77-9.4-60.72-22.64c-2.14-2.38-5.13-6.98-2.8-12.5
		c2.63-6.24,6.54-8.98,10.67-11.88c2.44-1.71,4.96-3.48,7.09-5.93c2.56-2.95,4.01-6.87,5.41-10.67c0.8-2.17,2.68-7.26,3.6-7.31
		c1.26,0.32,4.28,4.08,6.28,6.57c4.68,5.82,10.51,13.07,19.28,16.26c3.59,1.3,7.26,1.6,10.5,1.86c2.64,0.21,5.37,0.43,6.66,1.19
		c2.18,1.28,4.99,0.56,6.27-1.62c1.28-2.18,0.56-4.99-1.62-6.27c-3.11-1.83-6.91-2.14-10.58-2.43c-2.79-0.22-5.68-0.46-8.1-1.34
		c-6.36-2.31-11.09-8.2-15.27-13.39c-4.39-5.46-8.18-10.13-13.61-9.97c-7.2,0.27-9.86,7.49-12,13.29c-1.11,3.02-2.26,6.14-3.72,7.82
		c-1.4,1.6-3.27,2.92-5.44,4.44c-4.54,3.18-10.19,7.15-13.85,15.81c-0.66,1.56-1.07,3.08-1.32,4.56c-17.96-19.24-29-44.99-29-73.17
		c0-4.96,0.37-9.83,1.03-14.62c0.61,0.18,1.21,0.36,1.81,0.53c6.17,1.78,8.56,2.79,9.18,6.35c1.61,9.31,15.63,27.65,29.87,32.66
		c2.61,0.92,4.96,1.3,7.06,1.3c4.8,0,8.27-1.99,10.56-4.01c6.79-6,0.15-15.19-6.27-24.08c-2.56-3.55-7.23-10.01-7.44-12.46
		c0.08-0.03,0.18-0.07,0.31-0.11c4.42-1.43,6.87-1.28,9.04-1.13c6.33,0.41,9.51-1.12,15.86-11.03c4.13-6.45,12.71-8.38,20.28-10.08
		c7.43-1.67,15.84-3.56,15.84-11.42c0-5.78-4.1-12.01-10.69-16.27c-7.55-4.87-16.21-5.9-23.18-2.75c-4.57,2.06-7.56,1.03-8.36,0.66
		c-0.94-0.43-1.26-0.91-1.29-0.91c0.02-0.1,0.25-0.51,0.96-1.05c5.7-4.28,12.02-13.73,9.06-20.36c-1.09-2.43-4.18-6.25-12.7-4.54
		c-2.48,0.5-5.04,0.69-7.55,0.62c14.63-8.59,31.43-13.85,49.35-14.64c1.75,3.08,5.06,5.16,8.85,5.16c5.61,0,10.18-4.57,10.18-10.18
		c0-5.61-4.57-10.18-10.18-10.18c-4.16,0-7.73,2.51-9.31,6.08c-29.4,1.29-56.85,13.4-77.66,34.41
		c-21.77,21.98-33.76,51.11-33.76,82.05c0,30.93,11.99,60.07,33.76,82.05c3.63,3.67,7.49,7.04,11.5,10.16
		c0.6,0.58,1.19,1.08,1.74,1.5c0.3,0.23,0.63,0.4,0.96,0.54c18.56,13.57,40.64,21.32,63.93,22.25c1.76,3.07,5.05,5.14,8.83,5.14
		c5.61,0,10.18-4.57,10.18-10.18C265.3,236.89,260.73,232.32,255.12,232.32z M185.89,45.74c6.19,1.98,13.46,2.35,20.37,0.96
		c1.24-0.25,2.04-0.27,2.5-0.24c-0.26,1.9-2.56,6.14-6.15,8.83c-5.27,3.95-5.46,9.38-3.32,13c3.07,5.19,11.57,8.35,21.27,3.97
		c4.85-2.19,10.65-0.35,14.44,2.1c3.73,2.41,6.36,5.82,6.49,8.38c-1.14,0.98-5.65,1.99-8.69,2.67c-8.36,1.88-19.82,4.46-25.98,14.07
		c-4.5,7.03-5.15,6.98-7.55,6.83c-2.54-0.17-6.37-0.42-12.46,1.56c-4.01,1.3-5.59,3.83-6.21,5.73c-1.98,6.06,2.99,12.94,8.74,20.91
		c2.67,3.7,7.06,9.77,7.3,12.13c-1.41,1.13-3.77,2.21-8.19,0.66c-11.14-3.92-22.85-19.56-23.89-25.58
		c-1.65-9.55-9.75-11.88-15.67-13.59c-0.93-0.27-1.82-0.53-2.68-0.8C151.9,82.5,166.23,60.81,185.89,45.74z"/>
	<g id="XMLID_146_">
		<path id="XMLID_203_" class="st0" d="M228.22,55.53c-2.53,0-4.58-2.05-4.58-4.58V35.98c0-2.53,2.05-4.58,4.58-4.58
			c2.53,0,4.58,2.05,4.58,4.58v14.97C232.8,53.48,230.75,55.53,228.22,55.53z"/>
	</g>
	<g id="XMLID_177_">
		<path id="XMLID_201_" class="st0" d="M241.2,62.4c-2.53,0-4.58-2.05-4.58-4.58V35.98c0-2.53,2.05-4.58,4.58-4.58
			c2.53,0,4.58,2.05,4.58,4.58v21.83C245.78,60.34,243.73,62.4,241.2,62.4z"/>
	</g>
	<g id="XMLID_179_">
		<path id="XMLID_192_" class="st0" d="M254.81,74.14c-2.53,0-4.58-2.05-4.58-4.58V35.98c0-2.53,2.05-4.58,4.58-4.58
			s4.58,2.05,4.58,4.58v33.58C259.39,72.09,257.34,74.14,254.81,74.14z"/>
	</g>
	<g id="XMLID_175_">
		<path id="XMLID_189_" class="st0" d="M246.5,207.66h-21.75c-2.53,0-4.58-2.05-4.58-4.58c0-2.53,2.05-4.58,4.58-4.58h21.75
			c2.53,0,4.58,2.05,4.58,4.58C251.08,205.61,249.03,207.66,246.5,207.66z"/>
	</g>
	<g id="XMLID_182_">
		<path id="XMLID_188_" class="st0" d="M257.42,219.81h-18.17c-2.53,0-4.58-2.05-4.58-4.58c0-2.53,2.05-4.58,4.58-4.58h18.17
			c2.53,0,4.58,2.05,4.58,4.58C262,217.76,259.95,219.81,257.42,219.81z"/>
	</g>
	<g id="XMLID_183_">
		<path id="XMLID_155_" class="st0" d="M245.21,231.97h-18.17c-2.53,0-4.58-2.05-4.58-4.58c0-2.53,2.05-4.58,4.58-4.58h18.17
			c2.53,0,4.58,2.05,4.58,4.58C249.79,229.92,247.74,231.97,245.21,231.97z"/>
	</g>
	<g>
		<path class="st0" d="M238.62,107.66h55.09c2.53,0,4.58-2.05,4.58-4.58v-52.9c4.71-1.79,8.07-6.33,8.07-11.65
			c0-6.88-5.59-12.47-12.47-12.47c-6.88,0-12.47,5.59-12.47,12.47c0,5.19,3.19,9.65,7.72,11.53V98.5h-50.51
			c-2.53,0-4.58,2.05-4.58,4.58C234.04,105.6,236.09,107.66,238.62,107.66z M293.89,33.97c2.51,0,4.55,2.04,4.55,4.55
			c0,2.51-2.04,4.55-4.55,4.55c-2.51,0-4.55-2.04-4.55-4.55C289.34,36.01,291.38,33.97,293.89,33.97z"/>
		<path class="st0" d="M221.81,128.88h125.36c2.53,0,4.58-2.05,4.58-4.58v-21.71c0-0.3-0.03-0.59-0.09-0.87
			c4.74-1.77,8.12-6.33,8.12-11.67c0-6.88-5.59-12.47-12.47-12.47c-6.88,0-12.47,5.59-12.47,12.47c0,5.25,3.26,9.74,7.86,11.58
			c-0.07,0.31-0.11,0.64-0.11,0.97v17.13H221.81c-2.53,0-4.58,2.05-4.58,4.58C217.23,126.83,219.29,128.88,221.81,128.88z
			 M347.32,85.49c2.51,0,4.55,2.04,4.55,4.55c0,2.51-2.04,4.55-4.55,4.55c-2.51,0-4.55-2.04-4.55-4.55
			C342.76,87.53,344.81,85.49,347.32,85.49z"/>
		<path class="st0" d="M353.14,133.48c-5.1,0-9.48,3.08-11.41,7.46h-122.4c-2.53,0-4.58,2.05-4.58,4.58c0,2.53,2.05,4.58,4.58,4.58
			h122.07c1.72,4.84,6.33,8.32,11.75,8.32c6.88,0,12.47-5.59,12.47-12.47C365.61,139.08,360.01,133.48,353.14,133.48z
			 M353.14,150.51c-2.51,0-4.55-2.04-4.55-4.55c0-2.51,2.04-4.55,4.55-4.55c2.51,0,4.55,2.04,4.55,4.55
			C357.69,148.46,355.65,150.51,353.14,150.51z"/>
		<path class="st0" d="M328.08,184.37c-5.52,0-10.21,3.61-11.85,8.59h-11.87v-25.3c0-2.53-2.05-4.58-4.58-4.58h-62.41
			c-2.53,0-4.58,2.05-4.58,4.58s2.05,4.58,4.58,4.58h57.83v25.3c0,2.53,2.05,4.58,4.58,4.58h17.01c1.99,4.24,6.29,7.19,11.28,7.19
			c6.88,0,12.47-5.59,12.47-12.47C340.55,189.96,334.95,184.37,328.08,184.37z M328.08,201.39c-2.51,0-4.55-2.04-4.55-4.55
			c0-2.51,2.04-4.55,4.55-4.55c2.51,0,4.55,2.04,4.55,4.55C332.63,199.35,330.59,201.39,328.08,201.39z"/>
	</g>
</g>
</svg>
