<?xml version="1.0" encoding="utf-8"?>
<!-- Generator: Adobe Illustrator 16.0.0, SVG Export Plug-In . SVG Version: 6.00 Build 0)  -->
<!DOCTYPE svg PUBLIC "-//W3C//DTD SVG 1.1 Tiny//EN" "http://www.w3.org/Graphics/SVG/1.1/DTD/svg11-tiny.dtd">
<svg version="1.1" baseProfile="tiny" xmlns="http://www.w3.org/2000/svg" xmlns:xlink="http://www.w3.org/1999/xlink" x="0px"
	 y="0px" width="1305.603px" height="736.451px" viewBox="0 0 1305.603 736.451" xml:space="preserve">
<g id="Background">
	<g>
		<rect x="507.102" y="268.793" display="none" fill="#1F2936" width="800" height="266.792"/>
		<rect x="-0.584" fill="#1F2936" width="1306.687" height="736.8"/>
		<rect x="507.102" y="2" display="none" fill="#1F2936" width="800" height="266.793"/>
	</g>
</g>
<g id="Objects">
	<g>
		<g>
			<path fill="#F5EBEB" d="M83.603,474.654c-8,0.045-14.521-6.403-14.566-14.403l-0.018-3.018c-0.045-8,6.405-14.522,14.404-14.566
				l25.361-0.143c7.999-0.044,14.521,6.405,14.566,14.404l0.016,3.019c0.045,7.999-6.404,14.521-14.404,14.566L83.603,474.654z"/>
			<path fill="#DACDCD" d="M105.399,457.783l-0.069-12.222l3.47-0.019c6.323-0.036,11.497,5.08,11.532,11.403l0.004,0.754
				L105.399,457.783z"/>
			<path fill="#DACDCD" d="M105.477,471.514l-0.07-12.522l14.937-0.084l0.006,1.056c0.035,6.323-5.081,11.497-11.404,11.533
				L105.477,471.514z"/>
			<path fill="none" stroke="#DACDCD" stroke-width="2" stroke-miterlimit="10" d="M220.424,401.16c0,0-12.524,0.07-19.615,0.11
				c-5.686,0.031-5.821,7.274-5.821,7.274l0.089,15.819c0.03,5.407-5.275,5.335-5.275,5.335l-26.254,0.146l16.686-0.093
				c0,0-12.523,0.069-19.614,0.109c-5.686,0.031-5.82,7.275-5.82,7.275l0.088,15.819c0.03,5.406-5.275,5.334-5.275,5.334
				l-26.254,0.147"/>
			<g>
				<path fill="#F5EBEB" d="M214.134,171.079l-70.105,0.393l1.267,226.386l0.003,0.603l70.105-0.392l-0.003-0.604L214.134,171.079z
					 M145.898,397.854l-1.263-225.782l68.898-0.386l1.263,225.783L145.898,397.854z"/>
				<path fill="#F5EBEB" d="M229.739,163.136l-127.296,0.712l1.356,242.623l127.297-0.711L229.739,163.136z M118.279,306.729
					l-5.432,0.03l-4.828,0.027l-0.131-23.387l-0.007-1.208l-0.131-23.388l4.828-0.027l5.432-0.03l21.425-0.12l0.269,47.981
					L118.279,306.729z M144.698,399.068l-0.006-1.208l-1.27-226.989l71.313-0.398l1.27,226.989l0.006,1.208L144.698,399.068z"/>
				<path fill="#DFD3D2" d="M144.636,172.072l1.263,225.782l68.898-0.385l-1.263-225.783L144.636,172.072z M209.115,380.037
					l0.065,11.543l-11.546,0.065l-0.064-11.544L209.115,380.037z M193.493,380.124l0.064,11.544l-11.544,0.063l-0.065-11.544
					L193.493,380.124z M178.553,380.208l0.064,11.542l-11.546,0.065l-0.065-11.544L178.553,380.208z M151.703,376.282l-0.152-27.166
					l11.545-0.065l0.153,27.167L151.703,376.282z M209.028,364.414l0.065,11.545l-11.547,0.064l-0.065-11.545L209.028,364.414z
					 M193.405,364.501l0.065,11.545l-11.545,0.064l-0.064-11.545L193.405,364.501z M178.465,364.584l0.064,11.545l-11.546,0.064
					l-0.064-11.544L178.465,364.584z M208.941,348.794l0.064,11.543l-11.546,0.065l-0.065-11.544L208.941,348.794z M193.318,348.881
					l0.065,11.543l-11.545,0.064l-0.064-11.543L193.318,348.881z M178.378,348.964l0.064,11.544l-11.546,0.065l-0.064-11.545
					L178.378,348.964z M208.853,333.172l0.065,11.544l-11.546,0.064l-0.065-11.544L208.853,333.172z M193.23,333.26l0.064,11.544
					l-11.544,0.064l-0.065-11.544L193.23,333.26z M178.291,333.343l0.065,11.544l-11.546,0.064l-0.064-11.544L178.291,333.343z
					 M163.009,333.428l0.064,11.545l-11.545,0.064l-0.065-11.544L163.009,333.428z M208.766,317.549l0.065,11.546l-11.547,0.064
					l-0.064-11.546L208.766,317.549z M193.143,317.637l0.064,11.545l-11.544,0.064l-0.064-11.545L193.143,317.637z M178.203,317.721
					l0.065,11.545l-11.546,0.065l-0.065-11.545L178.203,317.721z M162.921,317.806l0.064,11.546l-11.545,0.065l-0.064-11.545
					L162.921,317.806z M208.679,301.931l0.064,11.542l-11.546,0.065l-0.065-11.543L208.679,301.931z M193.056,302.018l0.065,11.543
					l-11.545,0.064l-0.064-11.542L193.056,302.018z M178.116,302.102l0.063,11.542l-11.545,0.065l-0.065-11.543L178.116,302.102z
					 M162.833,302.187l0.065,11.543l-11.545,0.064l-0.064-11.542L162.833,302.187z M208.591,286.308l0.064,11.547l-11.545,0.063
					l-0.065-11.545L208.591,286.308z M192.969,286.396l0.064,11.546l-11.545,0.065l-0.064-11.547L192.969,286.396z M178.028,286.479
					l0.064,11.546l-11.546,0.064l-0.064-11.546L178.028,286.479z M208.504,270.688l0.064,11.545l-11.547,0.064l-0.064-11.545
					L208.504,270.688z M192.881,270.775l0.064,11.545l-11.545,0.065l-0.064-11.545L192.881,270.775z M177.941,270.859l0.065,11.544
					l-11.547,0.065l-0.064-11.545L177.941,270.859z M208.416,255.067l0.064,11.545l-11.546,0.064l-0.064-11.544L208.416,255.067z
					 M192.793,255.154l0.064,11.545l-11.544,0.064l-0.065-11.545L192.793,255.154z M177.854,255.238l0.065,11.545l-11.546,0.064
					l-0.065-11.544L177.854,255.238z M208.329,239.445l0.065,11.546l-11.546,0.064l-0.065-11.546L208.329,239.445z M192.707,239.533
					l0.064,11.546l-11.545,0.065l-0.064-11.547L192.707,239.533z M177.766,239.616l0.065,11.546l-11.546,0.065l-0.065-11.546
					L177.766,239.616z M208.242,223.826l0.064,11.544l-11.546,0.065l-0.065-11.545L208.242,223.826z M192.619,223.913l0.065,11.545
					l-11.545,0.063l-0.064-11.544L192.619,223.913z M177.679,223.996l0.064,11.545l-11.546,0.064l-0.065-11.545L177.679,223.996z
					 M208.154,208.205l0.064,11.545l-11.546,0.064l-0.064-11.545L208.154,208.205z M192.531,208.292l0.065,11.545l-11.545,0.065
					l-0.065-11.546L192.531,208.292z M177.592,208.376l0.064,11.545l-11.546,0.064l-0.064-11.545L177.592,208.376z M162.31,208.461
					l0.502,89.65l-11.545,0.064l-0.501-89.649L162.31,208.461z M208.066,192.583l0.065,11.545l-11.546,0.065l-0.064-11.545
					L208.066,192.583z M192.444,192.671l0.064,11.546l-11.545,0.063l-0.064-11.545L192.444,192.671z M177.504,192.755l0.065,11.545
					l-11.546,0.064l-0.064-11.545L177.504,192.755z M162.222,192.84l0.064,11.544l-11.544,0.065l-0.065-11.545L162.222,192.84z
					 M207.976,176.283l0.064,11.546l-11.546,0.064l-0.065-11.545L207.976,176.283z M192.353,176.371l0.065,11.546l-11.545,0.065
					l-0.065-11.546L192.353,176.371z M177.413,176.454L177.478,188l-11.546,0.064l-0.064-11.546L177.413,176.454z M162.131,176.54
					l0.065,11.546l-11.545,0.064l-0.065-11.545L162.131,176.54z"/>
				
					<rect x="196.461" y="176.316" transform="matrix(0.0056 1 -1 0.0056 383.1918 -21.159)" fill="#AD9E9E" width="11.547" height="11.547"/>
				
					<rect x="196.553" y="192.615" transform="matrix(0.0056 1 -1 0.0056 399.5729 -5.0505)" fill="#AD9E9E" width="11.545" height="11.546"/>
				
					<rect x="196.641" y="208.236" transform="matrix(0.0056 1 -1 0.0056 415.2898 10.4049)" fill="#AD9E9E" width="11.546" height="11.547"/>
				
					<rect x="196.729" y="223.856" transform="matrix(0.0056 1 -1 0.0056 430.996 25.8497)" fill="#AD9E9E" width="11.544" height="11.547"/>
				
					<rect x="196.815" y="239.477" transform="matrix(0.0056 1 -1 0.0056 446.6953 41.2867)" fill="#AD9E9E" width="11.547" height="11.547"/>
				
					<rect x="196.902" y="255.099" transform="matrix(0.0056 1 -1 0.0056 462.4119 56.7436)" fill="#AD9E9E" width="11.546" height="11.546"/>
				
					<rect x="196.99" y="270.72" transform="matrix(0.0056 1 -1 0.0056 478.1199 72.1899)" fill="#AD9E9E" width="11.546" height="11.547"/>
				
					<rect x="197.077" y="286.341" transform="matrix(0.0056 1 -1 0.0056 493.8273 87.6366)" fill="#AD9E9E" width="11.547" height="11.546"/>
				
					<rect x="197.166" y="301.961" transform="matrix(0.0055 1 -1 0.0055 509.542 103.0946)" fill="#AD9E9E" width="11.542" height="11.547"/>
				
					<rect x="197.252" y="317.581" transform="matrix(0.0056 1 -1 0.0056 525.2326 118.5138)" fill="#AD9E9E" width="11.546" height="11.546"/>
				
					<rect x="197.34" y="333.203" transform="matrix(0.0056 1 -1 0.0056 540.9407 133.9604)" fill="#AD9E9E" width="11.545" height="11.547"/>
				
					<rect x="197.428" y="348.824" transform="matrix(0.0055 1 -1 0.0055 556.6656 149.4364)" fill="#AD9E9E" width="11.543" height="11.547"/>
				
					<rect x="197.514" y="364.445" transform="matrix(0.0056 1 -1 0.0056 572.3563 164.8526)" fill="#AD9E9E" width="11.545" height="11.547"/>
				
					<rect x="197.603" y="380.068" transform="matrix(0.0056 1 -1 0.0056 588.0646 180.2984)" fill="#AD9E9E" width="11.544" height="11.546"/>
				
					<rect x="180.84" y="176.403" transform="matrix(0.0056 1 -1 0.0056 367.7366 -5.4582)" fill="#AD9E9E" width="11.547" height="11.546"/>
				
					<rect x="180.931" y="192.704" transform="matrix(0.0056 1 -1 0.0056 384.1349 10.6669)" fill="#AD9E9E" width="11.546" height="11.545"/>
				
					<rect x="181.018" y="208.324" transform="matrix(0.0056 1 -1 0.0056 399.8341 26.1044)" fill="#AD9E9E" width="11.546" height="11.545"/>
				
					<rect x="181.106" y="223.945" transform="matrix(0.0056 1 -1 0.0056 415.5419 41.5497)" fill="#AD9E9E" width="11.546" height="11.545"/>
				
					<rect x="181.193" y="239.565" transform="matrix(0.0056 1 -1 0.0056 431.2567 57.0055)" fill="#AD9E9E" width="11.547" height="11.546"/>
				
					<rect x="181.281" y="255.186" transform="matrix(0.0056 1 -1 0.0056 446.9639 72.4518)" fill="#AD9E9E" width="11.545" height="11.545"/>
				
					<rect x="181.368" y="270.808" transform="matrix(0.0056 1 -1 0.0056 462.6716 87.8983)" fill="#AD9E9E" width="11.545" height="11.545"/>
				
					<rect x="181.455" y="286.428" transform="matrix(0.0056 1 -1 0.0056 478.3795 103.3445)" fill="#AD9E9E" width="11.547" height="11.546"/>
				
					<rect x="181.544" y="302.049" transform="matrix(0.0056 1 -1 0.0056 494.079 118.7775)" fill="#AD9E9E" width="11.543" height="11.545"/>
				
					<rect x="181.63" y="317.67" transform="matrix(0.0056 1 -1 0.0056 509.7943 134.2366)" fill="#AD9E9E" width="11.546" height="11.545"/>
				
					<rect x="181.718" y="333.291" transform="matrix(0.0056 1 -1 0.0056 525.5021 149.6836)" fill="#AD9E9E" width="11.544" height="11.545"/>
				
					<rect x="181.806" y="348.913" transform="matrix(0.0056 1 -1 0.0056 541.2023 165.115)" fill="#AD9E9E" width="11.544" height="11.545"/>
				
					<rect x="181.892" y="364.534" transform="matrix(0.0056 1 -1 0.0056 556.9098 180.5612)" fill="#AD9E9E" width="11.546" height="11.545"/>
				
					<rect x="181.98" y="380.156" transform="matrix(0.0055 1 -1 0.0055 572.6342 196.0406)" fill="#AD9E9E" width="11.545" height="11.545"/>
				
					<rect x="165.899" y="176.486" transform="matrix(0.0056 1 -1 0.0056 352.9708 9.5729)" fill="#AD9E9E" width="11.547" height="11.547"/>
				
					<rect x="165.991" y="192.787" transform="matrix(0.0056 1 -1 0.0056 369.3537 25.6819)" fill="#AD9E9E" width="11.545" height="11.546"/>
				
					<rect x="166.078" y="208.407" transform="matrix(0.0056 1 -1 0.0056 385.0688 41.1368)" fill="#AD9E9E" width="11.545" height="11.547"/>
				
					<rect x="166.166" y="224.027" transform="matrix(0.0056 1 -1 0.0056 400.7756 56.5823)" fill="#AD9E9E" width="11.545" height="11.547"/>
				
					<rect x="166.252" y="239.648" transform="matrix(0.0056 1 -1 0.0056 416.4756 72.0186)" fill="#AD9E9E" width="11.546" height="11.547"/>
				
					<rect x="166.34" y="255.269" transform="matrix(0.0056 1 -1 0.0056 432.1833 87.4643)" fill="#AD9E9E" width="11.545" height="11.547"/>
				
					<rect x="166.428" y="270.891" transform="matrix(0.0056 1 -1 0.0056 447.891 102.9095)" fill="#AD9E9E" width="11.545" height="11.546"/>
				
					<rect x="166.514" y="286.512" transform="matrix(0.0056 1 -1 0.0056 463.606 118.3682)" fill="#AD9E9E" width="11.547" height="11.546"/>
				
					<rect x="166.603" y="302.132" transform="matrix(0.0055 1 -1 0.0055 479.3269 133.8398)" fill="#AD9E9E" width="11.542" height="11.547"/>
				
					<rect x="166.69" y="317.752" transform="matrix(0.0056 1 -1 0.0056 495.0126 149.2459)" fill="#AD9E9E" width="11.545" height="11.547"/>
				
					<rect x="166.778" y="333.374" transform="matrix(0.0056 1 -1 0.0056 510.7215 164.6923)" fill="#AD9E9E" width="11.544" height="11.546"/>
				
					<rect x="166.865" y="348.995" transform="matrix(0.0055 1 -1 0.0055 526.4435 180.1685)" fill="#AD9E9E" width="11.544" height="11.547"/>
				
					<rect x="166.952" y="364.617" transform="matrix(0.0056 1 -1 0.0056 542.1443 195.6005)" fill="#AD9E9E" width="11.546" height="11.547"/>
				
					<rect x="167.04" y="380.238" transform="matrix(0.0056 1 -1 0.0056 557.8517 211.0465)" fill="#AD9E9E" width="11.543" height="11.547"/>
				
					<rect x="150.618" y="176.573" transform="matrix(0.0056 1 -1 0.0056 337.8536 24.9312)" fill="#AD9E9E" width="11.547" height="11.545"/>
				
					<rect x="150.71" y="192.872" transform="matrix(0.0056 1 -1 0.0056 354.2497 41.056)" fill="#AD9E9E" width="11.545" height="11.545"/>
				
					<rect x="111.962" y="247.546" transform="matrix(0.0056 1 -1 0.0056 409.2246 95.1144)" fill="#AD9E9E" width="89.651" height="11.545"/>
				
					<rect x="151.322" y="302.218" transform="matrix(0.0056 1 -1 0.0056 464.1958 149.1667)" fill="#AD9E9E" width="11.543" height="11.545"/>
				
					<rect x="151.408" y="317.839" transform="matrix(0.0056 1 -1 0.0056 479.91 164.6261)" fill="#AD9E9E" width="11.546" height="11.545"/>
				
					<rect x="151.496" y="333.46" transform="matrix(0.0056 1 -1 0.0056 495.618 180.0732)" fill="#AD9E9E" width="11.545" height="11.546"/>
				
					<rect x="143.816" y="356.894" transform="matrix(-0.0056 -1 1 -0.0056 -204.379 522.0979)" fill="#AD9E9E" width="27.166" height="11.546"/>
				<polygon fill="#DFD3D2" points="118.142,282.135 118.148,283.342 118.272,305.522 138.491,305.41 138.237,259.842 
					118.018,259.955 				"/>
				<path fill="#AD9E9E" d="M118.011,258.748l-5.432,0.03l-4.828,0.027l0.131,23.388l0.007,1.208l0.131,23.387l4.828-0.027
					l5.432-0.03l21.426-0.12l-0.269-47.981L118.011,258.748z M138.491,305.41l-20.219,0.113l-0.124-22.18l-0.007-1.208l-0.124-22.18
					l20.219-0.113L138.491,305.41z M109.096,283.393l7.846-0.043l0.125,22.18l-3.018,0.017l-4.828,0.027L109.096,283.393z
					 M113.793,259.979l3.018-0.017l0.125,22.18l-7.846,0.044l-0.124-22.18L113.793,259.979z"/>
				<polygon fill="#DFD3D2" points="116.935,282.142 116.811,259.962 113.793,259.979 108.965,260.006 109.089,282.186 				"/>
				<polygon fill="#DFD3D2" points="114.048,305.546 117.066,305.529 116.941,283.35 109.096,283.393 109.22,305.574 				"/>
				<path fill="#B3B3B3" d="M214.734,170.473l-71.313,0.398l1.27,226.989l0.006,1.208l71.312-0.399l-0.006-1.208L214.734,170.473z
					 M215.404,398.069l-70.105,0.392l-0.003-0.603l-1.267-226.386l70.105-0.393l1.266,226.386L215.404,398.069z"/>
				
					<rect x="201.921" y="186.483" transform="matrix(0.0056 1 -1 0.0056 411.5346 -32.5519)" fill="#E6E6E6" width="40.427" height="8.324"/>
				
					<rect x="202.972" y="374.254" transform="matrix(0.0056 1 -1 0.0056 600.347 153.1182)" fill="#E6E6E6" width="40.426" height="8.325"/>
				<g>
					<path fill="#F4F4F4" d="M248.358,403.072l-1.329-237.493c-0.045-8-6.566-14.449-14.566-14.404l1.491,266.463
						C241.954,417.594,248.402,411.073,248.358,403.072z"/>
					
						<rect x="98.579" y="283.019" transform="matrix(0.0056 1 -1 0.0056 514.9266 51.0151)" fill="#AD9E9E" width="266.468" height="2.792"/>
				</g>
			</g>
			<g>
				<g>
					<g>
						<g>
							
								<rect x="83.949" y="-15.422" transform="matrix(0.5935 0.8049 -0.8049 0.5935 78.0443 -54.4108)" fill="#2FA3DD" width="17.87" height="130.947"/>
						</g>
					</g>
				</g>
				<g>
					<g>
						<g>
							
								<rect x="94.929" y="-9.876" transform="matrix(0.5934 0.8049 -0.8049 0.5934 84.1819 -55.4487)" fill="#258CB0" width="4.088" height="130.946"/>
						</g>
					</g>
				</g>
				<g>
					<g>
						<g>
							
								<rect x="87.438" y="-20.035" transform="matrix(0.5935 0.8049 -0.8049 0.5935 72.949 -53.548)" fill="#39B2E2" width="4.088" height="130.947"/>
						</g>
					</g>
				</g>
				<g>
					<g>
						<circle fill="#FE7C52" cx="139.936" cy="15.351" r="2.175"/>
					</g>
				</g>
				<g>
					<g>
						<path fill="#258CB0" d="M137.328,17.275c-1.062-1.439-0.754-3.472,0.685-4.534c1.438-1.06,3.471-0.753,4.533,0.685
							c1.061,1.438,0.753,3.474-0.686,4.533C140.423,19.022,138.387,18.713,137.328,17.275z M140.83,14.692
							c-0.364-0.492-1.059-0.597-1.552-0.232c-0.492,0.362-0.596,1.06-0.234,1.549c0.362,0.492,1.058,0.597,1.549,0.232
							C141.087,15.877,141.189,15.183,140.83,14.692z"/>
					</g>
				</g>
				<g>
					<g>
						<g>
							
								<rect x="136.193" y="24.885" transform="matrix(0.5934 0.8049 -0.8049 0.5934 76.4559 -101.0326)" fill="#39B2E2" width="4.088" height="0.559"/>
						</g>
					</g>
					<g>
						<g>
							
								<rect x="130.143" y="29.347" transform="matrix(0.5934 0.8049 -0.8049 0.5934 77.5869 -94.3489)" fill="#39B2E2" width="4.088" height="0.559"/>
						</g>
					</g>
					<g>
						<g>
							
								<rect x="124.093" y="33.809" transform="matrix(0.5934 0.8049 -0.8049 0.5934 78.7222 -87.6667)" fill="#39B2E2" width="4.087" height="0.56"/>
						</g>
					</g>
					<g>
						<g>
							
								<rect x="118.043" y="38.271" transform="matrix(0.5937 0.8047 -0.8047 0.5937 79.8165 -80.9705)" fill="#39B2E2" width="4.089" height="0.56"/>
						</g>
					</g>
					<g>
						<g>
							
								<rect x="111.989" y="42.735" transform="matrix(0.5933 0.805 -0.805 0.5933 81.0104 -74.3027)" fill="#39B2E2" width="4.088" height="0.559"/>
						</g>
					</g>
					<g>
						<g>
							
								<rect x="105.939" y="47.196" transform="matrix(0.5935 0.8048 -0.8048 0.5935 82.1025 -67.6088)" fill="#39B2E2" width="4.088" height="0.559"/>
						</g>
					</g>
					<g>
						<g>
							
								<rect x="99.889" y="51.66" transform="matrix(0.5932 0.805 -0.805 0.5932 83.2757 -60.9318)" fill="#39B2E2" width="4.087" height="0.559"/>
						</g>
					</g>
					<g>
						<g>
							
								<rect x="93.84" y="56.119" transform="matrix(0.5939 0.8046 -0.8046 0.5939 84.3186 -54.2391)" fill="#39B2E2" width="4.088" height="0.561"/>
						</g>
					</g>
					<g>
						<g>
							
								<rect x="87.79" y="60.582" transform="matrix(0.594 0.8045 -0.8045 0.594 85.4392 -47.5593)" fill="#39B2E2" width="4.089" height="0.561"/>
						</g>
					</g>
					<g>
						<g>
							
								<rect x="81.74" y="65.044" transform="matrix(0.5935 0.8048 -0.8048 0.5935 86.6305 -40.8782)" fill="#39B2E2" width="4.088" height="0.56"/>
						</g>
					</g>
					<g>
						<g>
							
								<rect x="75.689" y="69.507" transform="matrix(0.5934 0.8049 -0.8049 0.5934 87.7722 -34.1932)" fill="#39B2E2" width="4.088" height="0.558"/>
						</g>
					</g>
					<g>
						<g>
							
								<rect x="69.64" y="73.968" transform="matrix(0.5937 0.8047 -0.8047 0.5937 88.8672 -27.5158)" fill="#39B2E2" width="4.086" height="0.559"/>
						</g>
					</g>
					<g>
						<g>
							
								<rect x="63.587" y="78.431" transform="matrix(0.5938 0.8046 -0.8046 0.5938 89.9908 -20.8348)" fill="#39B2E2" width="4.088" height="0.562"/>
						</g>
					</g>
					<g>
						<g>
							
								<rect x="57.535" y="82.893" transform="matrix(0.5933 0.8049 -0.8049 0.5933 91.1777 -14.1351)" fill="#39B2E2" width="4.087" height="0.559"/>
						</g>
					</g>
					<g>
						<g>
							
								<rect x="51.486" y="87.357" transform="matrix(0.5934 0.8049 -0.8049 0.5934 92.3011 -7.4543)" fill="#39B2E2" width="4.087" height="0.559"/>
						</g>
					</g>
					<g>
						<g>
							
								<rect x="45.436" y="91.818" transform="matrix(0.5935 0.8048 -0.8048 0.5935 93.4237 -0.7759)" fill="#39B2E2" width="4.087" height="0.558"/>
						</g>
					</g>
				</g>
			</g>
			<path fill="none" stroke="#DACDCD" stroke-width="2" stroke-miterlimit="10" d="M131.515,406.316l0.029,5.3
				c0.044,7.998-6.404,14.521-14.404,14.566l-62.273,0.348c-8,0.045-14.521-6.404-14.566-14.404l-0.192-34.318"/>
			<path fill="#666666" d="M71.063,298.222l-0.001-0.131l-0.009-1.61l-0.094,0c-0.843-7.237-7.008-12.836-14.463-12.794
				l-33.824,0.189c-7.456,0.042-13.557,5.709-14.319,12.955l-0.094,0.001l0.009,1.61l0.001,0.13l0.444,79.335l62.793-0.352
				L71.063,298.222z"/>
			
				<rect x="5.478" y="310.853" transform="matrix(-0.0056 -1 1 -0.0056 -296.8762 378.7501)" fill="#AD9E9E" width="68.805" height="52.264"/>
			
				<rect x="15.88" y="291.924" transform="matrix(0.0056 1 -1 0.0056 316.3313 272.4824)" fill="#AD9E9E" width="10.561" height="6.741"/>
			
				<rect x="25.061" y="291.873" transform="matrix(0.0056 1 -1 0.0056 325.4106 263.2503)" fill="#AD9E9E" width="10.562" height="6.741"/>
			
				<rect x="46.219" y="291.822" transform="matrix(0.0056 1 -1 0.0056 346.3313 241.9748)" fill="#AD9E9E" width="10.561" height="6.605"/>
			
				<rect x="54.128" y="291.778" transform="matrix(0.0056 1 -1 0.0056 354.15 234.008)" fill="#AD9E9E" width="10.562" height="6.606"/>
			<circle fill="#AD9E9E" cx="40.653" cy="295.185" r="5.281"/>
			<circle fill="#666666" cx="40.652" cy="295.185" r="3.47"/>
			<g>
				<g>
					<path fill="#F2F2F2" d="M123.075,138.324c-2.775,0.644-5.571-1.1-6.216-3.874l-8.679-37.405
						c-0.644-2.776,1.099-5.574,3.875-6.218l90.958-21.105c2.774-0.643,5.573,1.101,6.216,3.876l8.679,37.406
						c0.644,2.774-1.1,5.572-3.875,6.216L123.075,138.324z"/>
				</g>
				<g>
					<path fill="#F2F2F2" d="M120.304,91.077l75.01-17.405l10.067,43.391l-75.01,17.405L120.304,91.077z M193.508,76.571
						l-70.307,16.313l8.976,38.686l70.307-16.314L193.508,76.571z"/>
				</g>
				<g>
					<circle fill="#CCCCCC" cx="119.785" cy="114.061" r="4.627"/>
				</g>
				<g>
					<path fill="#F2F2F2" d="M117.412,113.291c-0.003-0.523,0.364-0.989,0.875-1.108l2.018-0.468
						c0.608-0.139,1.216,0.241,1.356,0.847l0.469,2.02c0.146,0.597-0.246,1.215-0.846,1.354l-2.018,0.468
						c-0.294,0.068-0.597,0.018-0.854-0.142c-0.256-0.16-0.435-0.41-0.502-0.704l-0.469-2.017
						C117.422,113.459,117.412,113.375,117.412,113.291z M121.556,114.833c0-0.039-0.005-0.078-0.014-0.117l-0.469-2.019
						c-0.066-0.283-0.349-0.459-0.633-0.394l-2.018,0.469c-0.276,0.063-0.454,0.348-0.395,0.633l0.469,2.017
						c0.032,0.138,0.115,0.254,0.234,0.329c0.12,0.074,0.261,0.098,0.398,0.064l2.018-0.469
						C121.386,115.293,121.558,115.076,121.556,114.833z"/>
				</g>
				<g>
					<path fill="#CCCCCC" d="M205.634,98.844c-0.446,0.104-0.892-0.174-0.995-0.619l-1.707-7.357
						c-0.104-0.446,0.174-0.89,0.62-0.993l0.582-0.136c0.446-0.104,0.892,0.174,0.995,0.619l1.707,7.356
						c0.103,0.446-0.174,0.891-0.62,0.995L205.634,98.844z"/>
				</g>
				<g>
					<circle fill="#CCCCCC" cx="208.366" cy="93.508" r="1.174"/>
				</g>
				<g>
					<g>
						
							<rect x="141.79" y="66.786" transform="matrix(0.226 0.9741 -0.9741 0.226 227.4164 -78.0964)" fill="#AD9E9E" width="42.129" height="74.563"/>
					</g>
					<g>
						<path fill="#CCCCCC" d="M121.053,91.523l73.81-17.126l9.794,42.213l-73.809,17.126L121.053,91.523z M193.959,75.846
							l-71.457,16.58l9.249,39.863l71.457-16.58L193.959,75.846z"/>
					</g>
				</g>
				<g>
					<polygon fill="#666666" points="122.502,92.426 203.208,115.709 131.751,132.289 					"/>
				</g>
			</g>
			<g>
				
					<rect x="82.59" y="175.233" transform="matrix(-0.0056 -1 1 -0.0056 -91.2078 308.9476)" fill="#EDB996" width="50.838" height="49.181"/>
				<path fill="#EDB996" d="M177.037,192.388c0.017,2.961-2.373,5.377-5.334,5.394l-40.66,0.228l-0.06-10.729l40.66-0.227
					C174.604,187.036,177.021,189.423,177.037,192.388z"/>
				<path fill="#EDB996" d="M181.259,206.019c0.017,2.961-2.373,5.377-5.335,5.394l-45.369,0.254l1.183-10.734l44.126-0.247
					C178.826,200.668,181.242,203.056,181.259,206.019z"/>
				<path fill="#EDB996" d="M170.372,219.633c0.016,2.903-2.327,5.274-5.233,5.291l-41.555,0.232l-0.059-10.524l41.555-0.232
					C167.985,214.382,170.355,216.726,170.372,219.633z"/>
				<path fill="#EDB996" d="M166.051,179.118c0.015,2.782-2.23,5.052-5.011,5.068l-29.396,0.165l-0.734-10.074l30.073-0.168
					C163.765,174.092,166.036,176.335,166.051,179.118z"/>
				<path fill="#DDA885" d="M83.219,225.381l31.973-0.179l7.495,5.883l-0.003,0.006c1.301,1.255,2.118,3.009,2.129,4.958
					c0.021,3.841-3.075,6.973-6.916,6.995c-1.118,0.005-2.161-0.277-3.099-0.74l-0.014,0.018l-0.562-0.327
					c-0.086-0.051-0.18-0.096-0.264-0.152L83.219,225.381z"/>
				<path fill="#EDB996" d="M83.556,174.542c-3.855,0.021-6.963,3.165-6.942,7.023l0.206,36.895
					c0.021,3.857,3.165,6.967,7.021,6.945l0,0c3.855-0.021,6.963-3.167,6.941-7.024l-0.206-36.895
					C90.554,177.628,87.412,174.52,83.556,174.542L83.556,174.542z"/>
				
					<rect x="43.043" y="174.608" transform="matrix(-0.0056 -1 1 -0.0056 -140.6551 260.3213)" fill="#EDB996" width="32.127" height="50.976"/>
			</g>
			<g>
				
					<rect x="83.39" y="318.311" transform="matrix(0.0056 1 -1 0.0056 451.0972 232.1802)" fill="#EDB996" width="50.837" height="49.18"/>
				<path fill="#EDB996" d="M177.916,349.563c-0.016-2.961-2.432-5.35-5.394-5.333l-40.66,0.227l0.06,10.729l40.66-0.227
					C175.544,354.942,177.933,352.528,177.916,349.563z"/>
				<path fill="#EDB996" d="M181.985,335.887c-0.016-2.961-2.433-5.35-5.395-5.333l-45.369,0.253l1.302,10.72l44.126-0.246
					C179.613,341.264,182.002,338.85,181.985,335.887z"/>
				<path fill="#EDB996" d="M170.946,322.396c-0.016-2.903-2.386-5.248-5.292-5.232l-41.554,0.233l0.059,10.523l41.554-0.231
					C168.619,327.671,170.963,325.302,170.946,322.396z"/>
				<path fill="#EDB996" d="M167.08,362.956c-0.016-2.782-2.287-5.026-5.068-5.011l-29.396,0.164l-0.621,10.082l30.073-0.168
					C164.85,368.006,167.095,365.739,167.08,362.956z"/>
				<path fill="#DDA885" d="M83.734,317.595l31.974-0.179l7.427-5.966l-0.003-0.006c1.287-1.27,2.085-3.033,2.074-4.983
					c-0.021-3.84-3.153-6.937-6.994-6.916c-1.118,0.006-2.158,0.301-3.09,0.773l-0.014-0.018l-0.558,0.334
					c-0.086,0.052-0.179,0.098-0.262,0.154L83.734,317.595z"/>
				<path fill="#EDB996" d="M84.641,368.455c-3.856,0.021-6.999-3.087-7.021-6.945l-0.206-36.895
					c-0.021-3.857,3.086-7.003,6.942-7.023l0,0c3.856-0.022,6.999,3.087,7.02,6.945l0.207,36.895
					C91.604,365.29,88.497,368.434,84.641,368.455L84.641,368.455z"/>
				
					<rect x="43.844" y="317.687" transform="matrix(0.0056 1 -1 0.0056 402.7421 281.3439)" fill="#EDB996" width="32.128" height="50.976"/>
			</g>
			<g>
				
					<rect x="18.591" y="180.796" transform="matrix(-0.0056 -1 1 -0.0056 -181.481 246.0864)" fill="#258CB0" width="26.054" height="64.964"/>
				
					<rect x="18.444" y="154.742" transform="matrix(-0.0056 -1 1 -0.0056 -155.5738 219.7477)" fill="#2FA3DD" width="26.054" height="64.965"/>
			</g>
			<circle fill="#666666" cx="52.799" cy="219.02" r="4.644"/>
			<g>
				
					<rect x="19.237" y="296.352" transform="matrix(0.0056 1 -1 0.0056 360.9121 294.7346)" fill="#258CB0" width="26.054" height="64.964"/>
				
					<rect x="19.382" y="322.405" transform="matrix(0.0056 1 -1 0.0056 387.109 320.4832)" fill="#2FA3DD" width="26.054" height="64.964"/>
			</g>
			<circle fill="#666666" cx="53.38" cy="322.856" r="4.645"/>
			<path fill="#EFD6C5" d="M168.968,325.501l-0.038-6.865l-5.13,0.029v0.038c-0.064-0.008-0.122-0.037-0.188-0.037
				c-0.729,0.005-1.317,0.598-1.313,1.328l0.024,4.224c0.004,0.73,0.599,1.318,1.328,1.313c0.067,0,0.125-0.029,0.188-0.039
				l0.001,0.038L168.968,325.501z"/>
			<path fill="#EFD6C5" d="M180.021,339.104l-0.039-6.865l-5.13,0.028v0.038c-0.064-0.009-0.122-0.036-0.188-0.036
				c-0.729,0.004-1.316,0.598-1.313,1.328l0.023,4.224c0.004,0.73,0.599,1.317,1.328,1.313c0.067-0.001,0.124-0.029,0.188-0.04
				v0.038L180.021,339.104z"/>
			<path fill="#EFD6C5" d="M175.944,352.489l-0.035-6.278l-4.691,0.026l0.001,0.036c-0.059-0.009-0.112-0.035-0.173-0.035
				c-0.667,0.004-1.204,0.547-1.201,1.214l0.022,3.863c0.004,0.667,0.547,1.205,1.213,1.202c0.062,0,0.114-0.027,0.173-0.037v0.035
				L175.944,352.489z"/>
			<path fill="#EFD6C5" d="M164.626,365.766l-0.034-6.045l-4.516,0.025l0.001,0.034c-0.057-0.007-0.108-0.034-0.167-0.033
				c-0.642,0.004-1.159,0.526-1.155,1.169l0.021,3.72c0.003,0.643,0.527,1.16,1.168,1.156c0.059-0.001,0.109-0.026,0.166-0.036
				l0.001,0.035L164.626,365.766z"/>
			<path fill="#EFD6C5" d="M166.992,216.181l0.038,6.866l-5.13,0.028l0-0.037c-0.064,0.01-0.121,0.039-0.188,0.039
				c-0.729,0.004-1.323-0.583-1.327-1.313l-0.024-4.225c-0.004-0.729,0.584-1.323,1.313-1.327c0.067,0,0.125,0.027,0.189,0.037
				l-0.001-0.038L166.992,216.181z"/>
			<path fill="#EFD6C5" d="M177.891,202.456l0.038,6.866l-5.129,0.028l0-0.038c-0.064,0.009-0.121,0.038-0.188,0.038
				c-0.729,0.004-1.324-0.583-1.328-1.313l-0.024-4.225c-0.003-0.73,0.584-1.323,1.313-1.328c0.066,0,0.125,0.027,0.189,0.037
				l0-0.038L177.891,202.456z"/>
			<path fill="#EFD6C5" d="M173.666,189.118l0.035,6.278l-4.691,0.026v-0.036c-0.059,0.011-0.111,0.037-0.172,0.037
				c-0.667,0.003-1.21-0.534-1.213-1.201l-0.022-3.863c-0.003-0.667,0.534-1.212,1.201-1.215c0.062,0,0.113,0.025,0.172,0.034
				v-0.035L173.666,189.118z"/>
			<path fill="#EFD6C5" d="M162.2,175.969l0.033,6.044l-4.516,0.026v-0.035c-0.057,0.009-0.107,0.035-0.166,0.036
				c-0.643,0.003-1.166-0.513-1.169-1.156l-0.021-3.721c-0.004-0.642,0.514-1.165,1.156-1.168c0.059,0,0.109,0.025,0.166,0.033
				v-0.034L162.2,175.969z"/>
			
				<rect x="62.385" y="201.72" transform="matrix(0.0056 1 -1 0.0056 278.0829 136.4797)" fill="#E6E6E6" width="16.063" height="12.691"/>
			
				<rect x="63.826" y="328.001" transform="matrix(0.0056 1 -1 0.0056 405.0691 261.3679)" fill="#E6E6E6" width="14.594" height="12.691"/>
			<polygon fill="#F5EBEB" points="163.38,513.468 163.146,471.62 215.21,471.329 215.488,521.098 172.067,521.341 			"/>
			
				<rect x="194.901" y="486.28" transform="matrix(0.0056 1 -1 0.0056 695.8475 277.0284)" fill="#DFD3D2" width="27.461" height="4.225"/>
			
				<rect x="181.572" y="486.355" transform="matrix(0.0056 1 -1 0.0056 682.6748 290.4489)" fill="#DFD3D2" width="27.461" height="4.224"/>
			
				<rect x="194.313" y="507.083" transform="matrix(0.0056 1 -1 0.0056 710.0157 304.4151)" fill="#DFD3D2" width="15.277" height="4.224"/>
			
				<rect x="203.101" y="508.988" transform="matrix(0.0056 1 -1 0.0056 718.6795 299.4777)" fill="#DFD3D2" width="11.316" height="4.225"/>
			
				<rect x="182.76" y="478.32" transform="matrix(0.0056 1 -1 0.0056 667.7858 289.3228)" fill="#DFD3D2" width="11.316" height="4.225"/>
			
				<rect x="190.938" y="506.221" transform="matrix(0.0056 1 -1 0.0056 702.6525 310.0944)" fill="#DFD3D2" width="8.952" height="4.225"/>
			
				<rect x="193.071" y="514.393" transform="matrix(0.0057 1 -1 0.0057 710.8381 318.0925)" fill="#DFD3D2" width="4.776" height="4.225"/>
			
				<rect x="196.209" y="491.976" transform="matrix(0.0055 1 -1 0.0055 694.8325 289.4948)" fill="#DFD3D2" width="11.316" height="4.225"/>
			
				<rect x="196.13" y="477.792" transform="matrix(0.0057 1 -1 0.0057 680.5446 275.4071)" fill="#DFD3D2" width="11.316" height="4.225"/>
			<polygon fill="#E8E2E2" points="163.38,513.468 171.502,513.687 172.067,521.341 			"/>
			<g>
				<g>
					<g>
						<g>
							<g>
								
									<rect x="275.658" y="469.545" transform="matrix(-0.4348 0.9005 -0.9005 -0.4348 827.3483 424.1294)" fill="#FF1F37" width="9.824" height="4.334"/>
							</g>
						</g>
					</g>
					<g>
						<g>
							<g>
								
									<rect x="277.045" y="471.756" transform="matrix(-0.435 0.9004 -0.9004 -0.435 827.8184 428.4113)" fill="#FF4A64" width="4.912" height="4.335"/>
							</g>
						</g>
					</g>
					<g>
						<g>
							<g>
								
									<rect x="246.781" y="428.686" transform="matrix(-0.4352 0.9003 -0.9003 -0.4352 771.3293 434.7154)" fill="#FC9F3A" width="5.075" height="61.19"/>
							</g>
						</g>
					</g>
					<g>
						<g>
							<g>
								
									<rect x="248.845" y="424.413" transform="matrix(-0.4351 0.9004 -0.9004 -0.4351 770.4396 426.635)" fill="#F98410" width="5.076" height="61.189"/>
							</g>
						</g>
					</g>
					<g>
						<g>
							<g>
								
									<rect x="272.989" y="469.683" transform="matrix(-0.435 0.9004 -0.9004 -0.435 822.3928 424.8656)" fill="#666666" width="9.823" height="1.531"/>
							</g>
						</g>
					</g>
					<polygon fill="#EDB996" points="224.937,439.417 212.621,438.422 220.664,448.262 					"/>
				</g>
				<polygon fill="#666666" points="212.621,438.422 214.623,438.584 213.936,440.03 				"/>
			</g>
		</g>
	</g>
	<g>
		<g>
			<g>
				<g>
					<g>
						<g>
							<g>
								
									<rect x="1139.358" y="550.512" transform="matrix(0.8981 0.4399 -0.4399 0.8981 359.7735 -447.0117)" fill="#FF1F37" width="9.877" height="4.359"/>
							</g>
						</g>
					</g>
					<g>
						<g>
							<g>
								
									<rect x="1144.045" y="551.598" transform="matrix(0.8981 0.4398 -0.4398 0.8981 360.4317 -447.8411)" fill="#FF4A64" width="4.938" height="4.357"/>
							</g>
						</g>
					</g>
					<g>
						<g>
							<g>
								
									<rect x="1129.07" y="553.28" transform="matrix(0.8979 0.4402 -0.4402 0.8979 372.5857 -438.4728)" fill="#F5EBEB" width="5.103" height="61.526"/>
							</g>
						</g>
					</g>
					<g>
						<g>
							<g>
								
									<rect x="1124.784" y="551.179" transform="matrix(0.898 0.44 -0.44 0.898 371.052 -436.6735)" fill="#DACDCD" width="5.105" height="61.526"/>
							</g>
						</g>
					</g>
					<g>
						<g>
							<g>
								
									<rect x="1138.073" y="554.597" transform="matrix(0.898 0.44 -0.44 0.898 360.9977 -446.3129)" fill="#666666" width="9.878" height="1.54"/>
							</g>
						</g>
					</g>
					<polygon fill="#EDB996" points="1111.511,608.445 1110.443,620.822 1120.381,612.793 					"/>
				</g>
				<polygon fill="#666666" points="1110.443,620.822 1110.616,618.811 1112.067,619.511 				"/>
			</g>
			<rect x="825.15" y="477.362" fill="#FFFFFF" width="185.492" height="131.6"/>
			<g>
				<circle fill="#603813" stroke="#FFFFFF" stroke-width="6" stroke-miterlimit="10" cx="920.289" cy="416.382" r="24.029"/>
				<path fill="#FFFFFF" d="M934.744,396.583l6.597-14.339c1.123-2.438,0.056-5.321-2.383-6.442
					c-2.434-1.121-5.316-0.055-6.438,2.383l-6.597,14.339c-0.086,0.186-0.136,0.378-0.197,0.57l8.712,4.009
					C934.543,396.932,934.658,396.768,934.744,396.583z M930.332,394.553l6.598-14.34L930.332,394.553z"/>
			</g>
			<g>
				<path fill="#F5EBEB" d="M1275.849,585.13c-2.304,7.707-10.42,12.087-18.126,9.782l-2.907-0.872
					c-7.705-2.302-12.086-10.419-9.781-18.126l7.307-24.431c2.306-7.706,10.424-12.086,18.127-9.781l2.909,0.869
					c7.705,2.307,12.085,10.424,9.78,18.128L1275.849,585.13z"/>
				<path fill="#DACDCD" d="M1266.022,559.217l-11.774-3.521l1.001-3.345c1.82-6.089,8.259-9.563,14.351-7.739l0.727,0.217
					L1266.022,559.217z"/>
				<path fill="#DACDCD" d="M1279.25,563.175l-12.064-3.608l4.304-14.392l1.018,0.304c6.091,1.821,9.564,8.263,7.744,14.352
					L1279.25,563.175z"/>
				<path fill="none" stroke="#DACDCD" stroke-width="2" stroke-miterlimit="10" d="M1245.327,431.979
					c0,0-3.607,12.065-5.651,18.896c-1.638,5.473,5.29,7.732,5.29,7.732l15.239,4.556c5.209,1.559,3.581,6.642,3.581,6.642
					l-7.564,25.291l4.809-16.075c0,0-3.609,12.064-5.652,18.896c-1.638,5.475,5.288,7.733,5.288,7.733l15.241,4.557
					c5.208,1.557,3.583,6.64,3.583,6.64l-7.565,25.291"/>
				
					<rect x="984.002" y="444.735" transform="matrix(0.9581 0.2866 -0.2866 0.9581 184.8617 -296.9164)" fill="#AD9E9E" width="245.703" height="76.784"/>
				<g>
					<g>
						
							<rect x="1001.974" y="421.449" transform="matrix(0.958 0.2868 -0.2868 0.958 165.0285 -271.2081)" fill="#F5F5F5" width="12.431" height="12.429"/>
						
							<rect x="1018.787" y="426.477" transform="matrix(0.958 0.2867 -0.2867 0.958 167.0547 -275.6709)" fill="#F5F5F5" width="12.431" height="12.43"/>
						
							<rect x="1034.901" y="431.296" transform="matrix(0.9581 0.2864 -0.2864 0.9581 168.9183 -279.852)" fill="#F5F5F5" width="12.432" height="12.432"/>
						
							<rect x="1051.016" y="436.114" transform="matrix(0.9581 0.2863 -0.2863 0.9581 170.9132 -284.1914)" fill="#F5F5F5" width="12.429" height="12.433"/>
						
							<rect x="1067.129" y="440.935" transform="matrix(0.958 0.2866 -0.2866 0.958 173.2118 -288.9019)" fill="#F5F5F5" width="12.432" height="12.432"/>
						
							<rect x="1083.243" y="445.753" transform="matrix(0.9581 0.2864 -0.2864 0.9581 175.0615 -293.0636)" fill="#F5F5F5" width="12.43" height="12.433"/>
						
							<rect x="1099.358" y="450.577" transform="matrix(0.9581 0.2865 -0.2865 0.9581 177.2311 -297.6165)" fill="#F5F5F5" width="12.43" height="12.429"/>
						
							<rect x="1115.471" y="455.393" transform="matrix(0.958 0.2866 -0.2866 0.958 179.3676 -302.1307)" fill="#F5F5F5" width="12.433" height="12.432"/>
						
							<rect x="1131.587" y="460.212" transform="matrix(0.9581 0.2864 -0.2864 0.9581 181.2444 -306.3241)" fill="#F5F5F5" width="12.429" height="12.434"/>
						
							<rect x="1147.699" y="465.033" transform="matrix(0.9581 0.2865 -0.2865 0.9581 183.4236 -310.8905)" fill="#F5F5F5" width="12.432" height="12.431"/>
						
							<rect x="1163.813" y="469.854" transform="matrix(0.958 0.2867 -0.2867 0.958 185.6174 -315.4763)" fill="#F5F5F5" width="12.432" height="12.43"/>
						
							<rect x="1179.93" y="474.672" transform="matrix(0.9581 0.2866 -0.2866 0.9581 187.5491 -319.7363)" fill="#F5F5F5" width="12.428" height="12.431"/>
						
							<rect x="1196.043" y="479.493" transform="matrix(0.9581 0.2865 -0.2865 0.9581 189.5514 -324.0836)" fill="#F5F5F5" width="12.431" height="12.43"/>
						<polygon fill="#F5F5F5" points="1222.546,498.265 1210.638,494.7 1214.197,482.794 1226.108,486.352 						"/>
					</g>
					<g>
						
							<rect x="997.154" y="437.566" transform="matrix(0.958 0.2867 -0.2867 0.958 169.3411 -269.0228)" fill="#F5F5F5" width="12.43" height="12.427"/>
						<polygon fill="#F5F5F5" points="1024.358,456.544 1012.448,452.978 1016.009,441.07 1027.919,444.635 						"/>
						
							<rect x="1030.082" y="447.412" transform="matrix(0.9581 0.2865 -0.2865 0.9581 173.4197 -277.9001)" fill="#F5F5F5" width="12.43" height="12.429"/>
						
							<rect x="1046.195" y="452.233" transform="matrix(0.958 0.2867 -0.2867 0.958 175.6214 -282.4862)" fill="#F5F5F5" width="12.429" height="12.428"/>
						
							<rect x="1062.308" y="457.051" transform="matrix(0.958 0.2866 -0.2866 0.958 177.6119 -286.8238)" fill="#F5F5F5" width="12.433" height="12.429"/>
						
							<rect x="1078.422" y="461.871" transform="matrix(0.9581 0.2864 -0.2864 0.9581 179.4978 -291.0356)" fill="#F5F5F5" width="12.432" height="12.428"/>
						
							<rect x="1094.537" y="466.691" transform="matrix(0.9581 0.2865 -0.2865 0.9581 181.6286 -295.5389)" fill="#F5F5F5" width="12.431" height="12.429"/>
						
							<rect x="1110.65" y="471.51" transform="matrix(0.958 0.2866 -0.2866 0.958 183.8017 -300.0938)" fill="#F5F5F5" width="12.432" height="12.43"/>
						
							<rect x="1126.767" y="476.329" transform="matrix(0.9581 0.2866 -0.2866 0.9581 185.7943 -304.4324)" fill="#F5F5F5" width="12.428" height="12.43"/>
						
							<rect x="1142.879" y="481.149" transform="matrix(0.9581 0.2864 -0.2864 0.9581 187.7373 -308.7104)" fill="#F5F5F5" width="12.431" height="12.429"/>
						
							<rect x="1158.993" y="485.969" transform="matrix(0.958 0.2866 -0.2866 0.958 189.9504 -313.3143)" fill="#F5F5F5" width="12.43" height="12.428"/>
						
							<rect x="1175.109" y="490.789" transform="matrix(0.9581 0.2865 -0.2865 0.9581 191.9036 -317.6045)" fill="#F5F5F5" width="12.428" height="12.428"/>
						
							<rect x="1191.224" y="495.609" transform="matrix(0.9581 0.2865 -0.2865 0.9581 193.9849 -322.0499)" fill="#F5F5F5" width="12.43" height="12.428"/>
						
							<rect x="1207.338" y="500.429" transform="matrix(0.958 0.2867 -0.2867 0.958 196.2043 -326.6635)" fill="#F5F5F5" width="12.429" height="12.426"/>
					</g>
					<g>
						
							<rect x="992.544" y="452.976" transform="matrix(0.9581 0.2866 -0.2866 0.9581 173.4786 -266.9553)" fill="#F5F5F5" width="12.432" height="12.431"/>
						
							<rect x="1009.359" y="458.002" transform="matrix(0.9581 0.2864 -0.2864 0.9581 175.5305 -271.4553)" fill="#F5F5F5" width="12.43" height="12.434"/>
						
							<rect x="1025.472" y="462.823" transform="matrix(0.9581 0.2864 -0.2864 0.9581 177.5696 -275.8496)" fill="#F5F5F5" width="12.431" height="12.432"/>
						
							<rect x="1041.586" y="467.64" transform="matrix(0.9581 0.2865 -0.2865 0.9581 179.6813 -280.3287)" fill="#F5F5F5" width="12.431" height="12.433"/>
						
							<rect x="1057.699" y="472.462" transform="matrix(0.958 0.2866 -0.2866 0.958 181.8299 -284.8488)" fill="#F5F5F5" width="12.43" height="12.431"/>
						
							<rect x="1073.812" y="477.282" transform="matrix(0.9581 0.2864 -0.2864 0.9581 183.7537 -289.11)" fill="#F5F5F5" width="12.43" height="12.43"/>
						
							<rect x="1089.929" y="482.102" transform="matrix(0.9581 0.2865 -0.2865 0.9581 185.8275 -293.5449)" fill="#F5F5F5" width="12.429" height="12.433"/>
						
							<rect x="1106.041" y="486.919" transform="matrix(0.9581 0.2866 -0.2866 0.9581 187.9662 -298.0563)" fill="#F5F5F5" width="12.432" height="12.434"/>
						
							<rect x="1122.157" y="491.742" transform="matrix(0.958 0.2867 -0.2867 0.958 190.0959 -302.5566)" fill="#F5F5F5" width="12.428" height="12.429"/>
						
							<rect x="1138.269" y="496.561" transform="matrix(0.9581 0.2865 -0.2865 0.9581 192.0563 -306.8585)" fill="#F5F5F5" width="12.429" height="12.432"/>
						
							<rect x="1154.384" y="501.379" transform="matrix(0.9581 0.2866 -0.2866 0.9581 194.1559 -311.3252)" fill="#F5F5F5" width="12.431" height="12.433"/>
						
							<rect x="1170.499" y="506.199" transform="matrix(0.9581 0.2865 -0.2865 0.9581 196.1257 -315.6376)" fill="#F5F5F5" width="12.428" height="12.431"/>
						
							<rect x="1186.614" y="511.018" transform="matrix(0.9581 0.2864 -0.2864 0.9581 198.1443 -320.0078)" fill="#F5F5F5" width="12.43" height="12.433"/>
						
							<rect x="1202.728" y="515.84" transform="matrix(0.9581 0.2865 -0.2865 0.9581 200.2574 -324.4895)" fill="#F5F5F5" width="12.427" height="12.43"/>
					</g>
					
						<rect x="987.83" y="468.739" transform="matrix(0.9581 0.2865 -0.2865 0.9581 177.7426 -264.8818)" fill="#F5F5F5" width="12.431" height="12.432"/>
					
						<rect x="1004.643" y="473.768" transform="matrix(0.9581 0.2864 -0.2864 0.9581 179.8149 -269.4067)" fill="#F5F5F5" width="12.432" height="12.432"/>
					
						<rect x="1018.993" y="490.637" transform="matrix(0.9581 0.2865 -0.2865 0.9581 187.1124 -284.9698)" fill="#F5F5F5" width="96.528" height="12.43"/>
					
						<rect x="1117.443" y="507.507" transform="matrix(0.958 0.2867 -0.2867 0.958 194.4539 -300.5853)" fill="#F5F5F5" width="12.426" height="12.431"/>
					
						<rect x="1133.554" y="512.326" transform="matrix(0.958 0.2867 -0.2867 0.958 196.4996 -304.9885)" fill="#F5F5F5" width="12.43" height="12.43"/>
					
						<rect x="1149.669" y="517.145" transform="matrix(0.9581 0.2866 -0.2866 0.9581 198.4509 -309.2833)" fill="#F5F5F5" width="12.428" height="12.43"/>
					
						<rect x="1165.432" y="524.375" transform="matrix(0.9581 0.2866 -0.2866 0.9581 201.5408 -315.9123)" fill="#F5F5F5" width="29.249" height="12.432"/>
				</g>
				<path fill="#F4F4F4" d="M1183.805,418.454c-1.217,4.062-5.495,6.372-9.557,5.156l-74.232-22.203
					c-4.06-1.215-6.371-5.492-5.154-9.554l0,0c1.215-4.063,5.493-6.371,9.555-5.155l74.231,22.203
					C1182.709,410.114,1185.018,414.391,1183.805,418.454L1183.805,418.454z"/>
				<g>
					<path fill="#F4F4F4" d="M1288.318,424.104l-283.911-84.917c-9.565-2.86-19.635,2.576-22.495,12.14l318.542,95.271
						C1303.313,437.036,1297.881,426.965,1288.318,424.104z"/>
					
						<rect x="974.442" y="398.89" transform="matrix(0.9581 0.2865 -0.2865 0.9581 162.635 -310.0626)" fill="#AD9E9E" width="332.487" height="3.483"/>
				</g>
			</g>
			<polygon fill="none" stroke="#AD9E9E" stroke-miterlimit="10" points="988.428,539.271 964.72,515.563 997.108,506.884 			"/>
			<line fill="none" stroke="#AD9E9E" stroke-miterlimit="10" x1="1000.455" y1="540.868" x2="976.179" y2="593.507"/>
			<circle fill="none" stroke="#AD9E9E" stroke-miterlimit="10" cx="898.411" cy="573.896" r="16.183"/>
			<g>
				<g>
					<g>
						<g>
							
								<rect x="909.68" y="454.107" transform="matrix(-0.7722 0.6354 -0.6354 -0.7722 1958.4075 337.6867)" fill="#FE7C52" width="17.968" height="131.669"/>
						</g>
					</g>
				</g>
				<g>
					<g>
						<g>
							
								<rect x="911.26" y="458.51" transform="matrix(-0.7724 0.6352 -0.6352 -0.7724 1951.7833 349.2385)" fill="#EF7554" width="4.11" height="131.667"/>
						</g>
					</g>
				</g>
				<g>
					<g>
						<g>
							
								<rect x="921.059" y="450.445" transform="matrix(-0.7723 0.6352 -0.6352 -0.7723 1964.015 328.6427)" fill="#FF9376" width="4.109" height="131.667"/>
						</g>
					</g>
				</g>
				<g>
					<g>
						<path fill="#30A2DC" d="M954.333,566.719c-0.768-0.93-0.635-2.309,0.299-3.078c0.931-0.764,2.31-0.63,3.076,0.303
							c0.771,0.931,0.636,2.312-0.296,3.078C956.479,567.789,955.1,567.654,954.333,566.719z"/>
					</g>
				</g>
				<g>
					<g>
						<path fill="#E2684B" d="M953.951,562.814c1.387-1.143,3.445-0.94,4.588,0.445c1.141,1.389,0.94,3.447-0.445,4.591
							c-1.387,1.143-3.45,0.941-4.589-0.445C952.359,566.017,952.563,563.955,953.951,562.814z M956.73,566.195
							c0.476-0.394,0.542-1.098,0.15-1.573c-0.391-0.473-1.095-0.538-1.567-0.151c-0.474,0.39-0.544,1.094-0.152,1.568
							C955.554,566.516,956.255,566.582,956.73,566.195z"/>
					</g>
				</g>
				<g>
					<g>
						<g>
							
								<rect x="944.023" y="563.867" transform="matrix(-0.7717 0.636 -0.636 -0.7717 2034.9609 397.841)" fill="#FF9376" width="4.108" height="0.564"/>
						</g>
					</g>
					<g>
						<g>
							
								<rect x="939.219" y="558.031" transform="matrix(-0.772 0.6356 -0.6356 -0.772 2022.8195 391.0798)" fill="#FF9376" width="4.109" height="0.563"/>
						</g>
					</g>
					<g>
						<g>
							
								<rect x="934.415" y="552.198" transform="matrix(-0.772 0.6356 -0.6356 -0.772 2010.6031 383.8314)" fill="#FF9376" width="4.107" height="0.563"/>
						</g>
					</g>
					<g>
						<g>
							
								<rect x="929.611" y="546.361" transform="matrix(-0.7722 0.6353 -0.6353 -0.7722 1998.4326 376.8614)" fill="#FF9376" width="4.109" height="0.56"/>
						</g>
					</g>
					<g>
						<g>
							
								<rect x="924.804" y="540.522" transform="matrix(-0.7725 0.635 -0.635 -0.7725 1986.2783 370.0126)" fill="#FF9376" width="4.112" height="0.562"/>
						</g>
					</g>
					<g>
						<g>
							
								<rect x="920.001" y="534.683" transform="matrix(-0.7722 0.6354 -0.6354 -0.7722 1973.9744 362.2037)" fill="#FF9376" width="4.111" height="0.562"/>
						</g>
					</g>
					<g>
						<g>
							
								<rect x="915.199" y="528.848" transform="matrix(-0.7725 0.6351 -0.6351 -0.7725 1961.8228 355.3308)" fill="#FF9376" width="4.109" height="0.561"/>
						</g>
					</g>
					<g>
						<g>
							
								<rect x="910.393" y="523.013" transform="matrix(-0.7718 0.6359 -0.6359 -0.7718 1949.4095 346.8987)" fill="#FF9376" width="4.112" height="0.563"/>
						</g>
					</g>
					<g>
						<g>
							
								<rect x="905.59" y="517.177" transform="matrix(-0.7721 0.6355 -0.6355 -0.7721 1937.2804 340.1471)" fill="#FF9376" width="4.112" height="0.562"/>
						</g>
					</g>
					<g>
						<g>
							
								<rect x="900.788" y="511.34" transform="matrix(-0.7721 0.6356 -0.6356 -0.7721 1925.051 332.8106)" fill="#FF9376" width="4.11" height="0.561"/>
						</g>
					</g>
					<g>
						<g>
							
								<rect x="895.984" y="505.503" transform="matrix(-0.7721 0.6355 -0.6355 -0.7721 1912.8418 325.5979)" fill="#FF9376" width="4.111" height="0.563"/>
						</g>
					</g>
					<g>
						<g>
							
								<rect x="891.182" y="499.664" transform="matrix(-0.7724 0.6351 -0.6351 -0.7724 1900.707 318.7815)" fill="#FF9376" width="4.108" height="0.562"/>
						</g>
					</g>
					<g>
						<g>
							
								<rect x="886.375" y="493.827" transform="matrix(-0.7718 0.6358 -0.6358 -0.7718 1888.3198 310.6064)" fill="#FF9376" width="4.11" height="0.566"/>
						</g>
					</g>
					<g>
						<g>
							
								<rect x="881.574" y="487.988" transform="matrix(-0.772 0.6356 -0.6356 -0.772 1876.1533 303.6031)" fill="#FF9376" width="4.109" height="0.566"/>
						</g>
					</g>
					<g>
						<g>
							
								<rect x="876.771" y="482.154" transform="matrix(-0.7719 0.6357 -0.6357 -0.7719 1863.9041 296.1677)" fill="#FF9376" width="4.108" height="0.565"/>
						</g>
					</g>
					<g>
						<g>
							
								<rect x="871.966" y="476.319" transform="matrix(-0.7719 0.6357 -0.6357 -0.7719 1851.6758 288.8503)" fill="#FF9376" width="4.109" height="0.563"/>
						</g>
					</g>
				</g>
			</g>
			<g>
				<polygon fill="#D8A387" points="855.963,479.496 847.41,472.814 816.305,488.193 827.731,490.369 				"/>
				<polygon fill="#E2B08F" points="868.101,481.172 859.549,474.489 827.851,490.261 839.785,492.497 				"/>
				<g>
					<polygon fill="#EDB996" points="803.119,536.263 853.468,545.093 862.009,496.383 816.305,488.193 809.073,502.307 					"/>
					<path fill="#EDB996" d="M803.168,535.984c-0.669,3.818,1.884,7.457,5.703,8.127l36.543,6.408
						c3.819,0.67,7.459-1.885,8.129-5.699l0,0c0.669-3.822-1.885-7.459-5.705-8.128l-36.541-6.408
						C807.477,529.617,803.838,532.166,803.168,535.984L803.168,535.984z"/>
					
						<rect x="807.918" y="539.126" transform="matrix(-0.985 -0.1727 0.1727 -0.985 1538.2303 1263.3361)" fill="#EDB996" width="32.306" height="51.256"/>
					<g>
						<polygon fill="#808080" points="826.379,560.138 852.184,564.662 838.171,648.995 811.772,648.995 						"/>
						<polygon fill="#AD9E9E" points="800.576,555.613 826.379,560.138 811.772,648.995 785.676,648.995 						"/>
					</g>
					
						<rect x="827.372" y="548.74" transform="matrix(-0.985 -0.1727 0.1727 -0.985 1561.0049 1246.0579)" fill="#E6E6E6" width="14.674" height="12.763"/>
					<g>
						<path fill="#EDB996" d="M850.042,500.427c1.069-0.527,8.018-3.31,15.553-6.269l3.173,9.176l10.944-3.788l-7.106-20.553
							c0,0-41.094,12.666-42.302,14.904l22.041,4.224C851.523,499.641,850.283,500.309,850.042,500.427z"/>
					</g>
					<circle fill="#EDB996" cx="874.022" cy="501.563" r="6.031"/>
					<polygon fill="#EDB996" points="868.346,503.637 865.595,494.158 873.166,498.562 					"/>
					<g>
						<g>
							<g>
								<g>
									<g>
										
											<rect x="811.777" y="489.293" transform="matrix(-0.2538 0.9672 -0.9672 -0.2538 1500.6041 -174.0288)" fill="#FF1F37" width="11.301" height="4.985"/>
									</g>
								</g>
							</g>
							<g>
								<g>
									<g>
										
											<rect x="813.885" y="492.026" transform="matrix(-0.254 0.9672 -0.9672 -0.254 1502.4456 -169.8091)" fill="#FF4A64" width="5.65" height="4.984"/>
									</g>
								</g>
							</g>
							<g>
								<g>
									<g>
										
											<rect x="851.133" y="469.057" transform="matrix(-0.2537 0.9673 -0.9673 -0.2537 1558.4773 -193.9315)" fill="#FC9F3A" width="5.839" height="70.392"/>
									</g>
								</g>
							</g>
							<g>
								<g>
									<g>
										
											<rect x="852.519" y="463.776" transform="matrix(-0.2538 0.9673 -0.9673 -0.2538 1555.191 -201.8115)" fill="#F98410" width="5.841" height="70.391"/>
									</g>
								</g>
							</g>
							<g>
								<g>
									<g>
										
											<rect x="815.053" y="491.794" transform="matrix(-0.2537 0.9673 -0.9673 -0.2537 1505.4596 -176.1993)" fill="#666666" width="11.302" height="1.762"/>
									</g>
								</g>
							</g>
							<polygon fill="#EDB996" points="890.222,505.085 901.74,513.417 887.354,516.016 							"/>
						</g>
						<polygon fill="#666666" points="901.74,513.417 899.867,512.063 899.387,513.84 						"/>
					</g>
					<path fill="#DDA885" d="M853.436,545.435l5.553-31.665l7.163-6.362l0.007,0.005c1.474-1.063,3.356-1.559,5.286-1.221
						c3.805,0.669,6.348,4.295,5.681,8.097c-0.194,1.108-0.66,2.091-1.286,2.933l0.014,0.02l-0.423,0.496
						c-0.066,0.073-0.128,0.161-0.198,0.233L853.436,545.435z"/>
				</g>
			</g>
			<g>
				
					<rect x="1064.197" y="535.545" transform="matrix(0.7071 0.7071 -0.7071 0.7071 698.3406 -602.9053)" fill="#FF9376" width="25.489" height="11.948"/>
				
					<rect x="1055.75" y="543.993" transform="matrix(0.7071 0.7071 -0.7071 0.7071 701.8395 -594.4568)" fill="#F48873" width="25.486" height="11.947"/>
				
					<rect x="1047.301" y="552.442" transform="matrix(0.7071 0.7071 -0.7071 0.7071 705.3398 -586.009)" fill="#E87E70" width="25.489" height="11.948"/>
				
					<rect x="1039.055" y="560.688" transform="matrix(0.707 0.7072 -0.7072 0.707 708.848 -577.7905)" fill="#DD7168" width="25.488" height="11.948"/>
				
					<rect x="1030.608" y="569.135" transform="matrix(0.7071 0.7071 -0.7071 0.7071 712.1917 -569.2977)" fill="#D36B66" width="25.488" height="11.948"/>
			</g>
			<g>
				<path fill="#EDB996" d="M950.232,592.929l34.744-13.01c3.633-1.358,7.679,0.48,9.036,4.113c0.033,0.089,0.056,0.179,0.085,0.268
					l0.014-0.005l-16.793-44.855l-9.729,2.913l-0.306-0.816l-2.753,1.03l0.545,1.456l-10.104,3.784l-0.546-1.458l-2.757,1.032
					l0.307,0.818l-9.662,4.952l-0.745-1.99l-2.756,1.031l3.229,8.626l-9.91,3.709l-3.229-8.625l0,0l17.047,45.531
					C944.945,597.946,946.776,594.223,950.232,592.929z"/>
				<path fill="#EDB996" d="M965.075,544.022l-0.545-1.456l-13.79-36.832c-1.045-2.789-4.152-4.204-6.945-3.16
					c-2.787,1.045-4.203,4.153-3.158,6.943l13.788,36.831l0.546,1.458L965.075,544.022z"/>
				<path fill="#EDB996" d="M951.975,548.199l-0.307-0.818l-15.251-40.736c-1.042-2.788-4.149-4.205-6.94-3.158
					c-2.789,1.044-4.204,4.149-3.159,6.94l15.25,40.734l0.745,1.99L951.975,548.199z"/>
				<path fill="#EDB996" d="M942.041,560.818l-3.229-8.626l-11.421-30.506c-1.024-2.735-4.074-4.124-6.81-3.102
					c-2.735,1.025-4.125,4.074-3.101,6.812l11.421,30.506l3.229,8.625L942.041,560.818z"/>
				<path fill="#EDB996" d="M977.318,539.439L977.318,539.439l-10.602-28.319c-0.981-2.62-3.901-3.95-6.521-2.971
					s-3.95,3.903-2.97,6.522l10.057,26.864l0.306,0.816L977.318,539.439z"/>
				<path fill="#DDA885" d="M946.112,601.95l-11.05-29.511l-8.209-4.936l-0.005,0.005c-1.645-0.774-3.585-0.914-5.422-0.228
					c-3.616,1.354-5.452,5.383-4.097,9.003c0.395,1.05,1.033,1.929,1.804,2.646l-0.012,0.02l0.508,0.411
					c0.079,0.063,0.153,0.133,0.237,0.192l26.469,22.995l-0.215-0.573c-0.001-0.004-0.003-0.008-0.005-0.012
					S946.114,601.955,946.112,601.95z"/>
				<path fill="#EDB996" d="M954.636,597.812l30.253-11.325l2.778,7.42l2.232-0.836c3.542-1.329,5.375-5.211,4.198-8.771
					c-0.029-0.089-0.052-0.179-0.085-0.268c-1.357-3.633-5.403-5.472-9.036-4.113l-34.744,13.01
					c-3.456,1.294-5.287,5.018-4.284,8.505c0.05,0.173,0.101,0.346,0.164,0.517c0.002,0.005,0.002,0.009,0.004,0.013
					s0.004,0.008,0.005,0.012c1.364,3.625,5.406,5.459,9.033,4.1l2.259-0.846L954.636,597.812z"/>
				<polygon fill="#EDB996" points="992.141,605.855 987.667,593.906 984.889,586.486 954.636,597.812 957.413,605.229 
					961.888,617.183 975.633,612.037 				"/>
				<polygon fill="#808080" points="975.633,612.037 961.888,617.183 951.098,621.222 961.496,648.995 989.47,648.995 				"/>
				<polygon fill="#AD9E9E" points="989.47,648.995 1017.442,648.995 1000.166,602.85 992.141,605.855 975.633,612.037 				"/>
			</g>
		</g>
	</g>
</g>
</svg>
