<svg xmlns="http://www.w3.org/2000/svg" width="415" height="382" viewBox="0 0 415 382">
  <g id="Group_1" data-name="Group 1" transform="translate(-966 -1261)">
    <rect id="Rectangle_10" data-name="Rectangle 10" width="415" height="382" transform="translate(966 1261)" fill="#008080" />
    <text id="_01" data-name="01" transform="translate(1003 1393)" fill="#d0d9d8" font-size="108" font-family="SegoeUI, Segoe UI"><tspan x="0" y="0">01</tspan></text>
    <text id="DIGITAL_MARKETING" data-name="DIGITAL
MARKETING" transform="translate(1003 1514)" fill="#d0d9d8" font-size="40" font-family="SegoeUI, Segoe UI"><tspan x="0" y="0">DIGITAL</tspan><tspan x="0" y="53">MARKETING</tspan></text>
    <path id="facebook" d="M4.169,33.911V18H0V12.27H4.169V7.377C4.169,3.532,6.631,0,12.306,0a34.141,34.141,0,0,1,4,.222l-.133,5.35s-1.732-.017-3.623-.017c-2.046,0-2.374.951-2.374,2.531V12.27h6.16L16.063,18H10.171V33.911h-6" transform="translate(1212.864 1315)" fill="#d0d0d9"/>
    <path id="youtube" d="M18.312,25.768V15.1l10.426,5.35L18.312,25.768Zm22.9-12.509s-.376-2.617-1.535-3.768a5.575,5.575,0,0,0-3.867-1.606C30.407,7.5,22.3,7.5,22.3,7.5h-.015s-8.1,0-13.5.383A5.575,5.575,0,0,0,4.921,9.49c-1.158,1.151-1.535,3.768-1.535,3.768A56.457,56.457,0,0,0,3,19.4v2.879a56.489,56.489,0,0,0,.386,6.142s.376,2.615,1.535,3.767c1.467,1.513,3.4,1.463,4.256,1.622,3.088.29,13.122.379,13.122.379s8.111-.011,13.511-.395a5.573,5.573,0,0,0,3.867-1.606c1.158-1.151,1.535-3.767,1.535-3.767a56.488,56.488,0,0,0,.386-6.142V19.4a56.427,56.427,0,0,0-.386-6.142Z" transform="translate(1273.477 1361.669)" fill="#d0d0d9" fill-rule="evenodd"/>
    <path id="twitter-bird" d="M36,3.464a14.956,14.956,0,0,1-3.69,3.814q.022.423.022.956a21.215,21.215,0,0,1-3.5,11.614,22.439,22.439,0,0,1-4.228,4.81A18.848,18.848,0,0,1,18.7,28a21.543,21.543,0,0,1-7.383,1.246A20.558,20.558,0,0,1,0,25.926a15.97,15.97,0,0,0,1.762.1,14.481,14.481,0,0,0,9.174-3.164A7.166,7.166,0,0,1,6.647,21.39,7.259,7.259,0,0,1,4.04,17.735a7.383,7.383,0,0,0,3.335-.124,7.2,7.2,0,0,1-4.24-2.545,7.146,7.146,0,0,1-1.684-4.694v-.091A7.289,7.289,0,0,0,4.8,11.2,7.337,7.337,0,0,1,2.4,8.573,7.207,7.207,0,0,1,1.51,5.061a7.257,7.257,0,0,1,1-3.711A21.029,21.029,0,0,0,9.243,6.8,20.524,20.524,0,0,0,17.73,9.068a7.222,7.222,0,0,1-.194-1.681A7.115,7.115,0,0,1,19.7,2.166a7.389,7.389,0,0,1,10.613.165A14.71,14.71,0,0,0,35,.537a7.141,7.141,0,0,1-3.244,4.087A14.76,14.76,0,0,0,36,3.464Z" transform="translate(1283.315 1407.465)" fill="#d0d0d9"/>
    <path id="instagram-filled" d="M19.631,15.618a3.108,3.108,0,0,0-3.2-3,3.108,3.108,0,0,0-3.2,3,3.108,3.108,0,0,0,3.2,3A3.108,3.108,0,0,0,19.631,15.618ZM24.388.022H8.136a7.881,7.881,0,0,0-8.12,7.6V9.737H11.965a8.118,8.118,0,0,1,8.927,0H32.507V7.62A7.88,7.88,0,0,0,24.388.022Zm3.288,7.227a.877.877,0,0,1-.9.844H23.986a.878.878,0,0,1-.9-.844V4.64a.877.877,0,0,1,.9-.844h2.788a.877.877,0,0,1,.9.844Zm-3.535,8.369a7.486,7.486,0,0,1-7.713,7.217,7.486,7.486,0,0,1-7.713-7.217,6.792,6.792,0,0,1,.733-3.066H.016v10.4a7.88,7.88,0,0,0,8.12,7.6H24.388a7.881,7.881,0,0,0,8.12-7.6v-10.4h-9.1a6.8,6.8,0,0,1,.733,3.066Z" transform="translate(1250.807 1324.302)" fill="#d0d0d9"/>
    <g id="speakerphone" transform="matrix(0.799, -0.602, 0.602, 0.799, 1151.738, 1431.479)">
      <path id="Path_31" data-name="Path 31" d="M4.985,12.762A6.991,6.991,0,0,1,9.246,6.328H8.7A5.939,5.939,0,0,0,3,11.616a1.084,1.084,0,0,0-.752,1.132,1.031,1.031,0,0,0,.816,1.118,5.788,5.788,0,0,0,4.9,4.837h.007a1.481,1.481,0,0,1,.295.063c.077.014.155.028.232.049a6.961,6.961,0,0,1-3.516-6.054Z" transform="translate(-2.251 -2.25)" fill="#d0d0d9"/>
      <path id="Path_32" data-name="Path 32" d="M59.331,11.509c-.155-.455-.325-.879-.494-1.3a17.461,17.461,0,0,0-3.3-5.431A7.371,7.371,0,0,0,50.25,2.25a6.528,6.528,0,0,0-3.4,1h-.014c-.169.109-.339.2-.508.315a46.707,46.707,0,0,1-22.964,7.752c-.918.063-1.836.031-2.754.031H14.632C9.829,13.708,6.3,19.279,6.3,25.715a16.113,16.113,0,0,0,6.751,13.514c1.836,1.71,5.889,1.837,5.65,3.75A39.1,39.1,0,0,1,17.6,47.8a99.236,99.236,0,0,0-3.573,22.71c0,.315,0,.58.028,1.036a1.056,1.056,0,0,0,1.2,1H26.1c.932,0,1.37-.518,1.314-1.46-.028-.3-.084-.674-.112-1.02a95.294,95.294,0,0,1-.466-12.806,61.286,61.286,0,0,1,.988-9.621,18.869,18.869,0,0,1,1.709-4.755c4.351.141,13.12,3.029,16.256,4.536,0,0,1.016.533,1.426.817a6.347,6.347,0,0,0,3.051.8,3.119,3.119,0,0,0,.382-.016c1.737-.109,3.419-1.522,4.9-3.06a17,17,0,0,0,3.3-5.431c.169-.44.339-.879.494-1.35A43.364,43.364,0,0,0,61.44,25.355a43.07,43.07,0,0,0-2.105-13.844Zm-3.262,27.7c-1.1,2.9-2.571,5.225-4.166,5.225s-3.051-2.308-4.152-5.225a40.97,40.97,0,0,1-2.105-13.828,40.749,40.749,0,0,1,2.119-13.875c1.1-2.888,2.557-4.63,4.138-4.63,1.6,0,3.037,1.757,4.152,4.63a40.749,40.749,0,0,1,2.119,13.875A40.97,40.97,0,0,1,56.069,39.212Z" transform="translate(-2.251 -2.25)" fill="#d0d0d9"/>
    </g>
  </g>
</svg>
