<svg xmlns="http://www.w3.org/2000/svg" width="415" height="382" viewBox="0 0 415 382">
  <g id="Group_4" data-name="Group 4" transform="translate(-966 -1674)">
    <rect id="Rectangle_8" data-name="Rectangle 8" width="415" height="382" transform="translate(966 1674)" fill="#1d2025"/>
    <text id="_05" data-name="05" transform="translate(1003 1818)" fill="#d0d9d8" font-size="108" font-family="SegoeUI, Segoe UI"><tspan x="0" y="0">05</tspan></text>
    <text id="APP_DEVELOPMENT" data-name="APP
DEVELOPMENT" transform="translate(1003 1939)" fill="#d0d9d8" font-size="40" font-family="SegoeUI, Segoe UI"><tspan x="0" y="0">APP</tspan><tspan x="0" y="53">DEVELOPMENT</tspan></text>
    <path id="mobile-phone-solid" d="M84.356,4H18.42A9.39,9.39,0,0,0,9,13.361V125.686a9.39,9.39,0,0,0,9.42,9.361H84.356a9.39,9.39,0,0,0,9.42-9.361V13.361A9.39,9.39,0,0,0,84.356,4ZM56.1,125.686h-9.42l.243-2.533L56.1,121.3Zm-37.476-9.36-.2-102.965H84.356V116.326Z" transform="translate(1221.298 1745)" fill="#d0d9d8"/>
  </g>
</svg>
