<svg xmlns="http://www.w3.org/2000/svg" width="415" height="382" viewBox="0 0 415 382">
  <g id="Group_2" data-name="Group 2" transform="translate(-1406 -1261)">
    <rect id="Rectangle_11" data-name="Rectangle 11" width="415" height="382" transform="translate(1406 1261)" fill="#008080"/>
    <text id="_02" data-name="02" transform="translate(1448 1393)" fill="#d0d9d8" font-size="108" font-family="SegoeUI, Segoe UI"><tspan x="0" y="0">02</tspan></text>
    <text id="SEO_CONTENT_WRITING" data-name="SEO &amp; CONTENT
WRITING" transform="translate(1448 1514)" fill="#d0d9d8" font-size="40" font-family="SegoeUI, Segoe UI"><tspan x="0" y="0">SEO &amp; CONTENT</tspan><tspan x="0" y="53">WRITING</tspan></text>
    <path id="seo" d="M113.173,111.051l-5.245,5.513a3.988,3.988,0,0,1-5.356,0L85.723,99.106a27.894,27.894,0,0,1-14.284,3.9,27.135,27.135,0,0,1-20.2-8.613,28.746,28.746,0,0,1-8.368-20.786,28.746,28.746,0,0,1,8.368-20.786,27.135,27.135,0,0,1,20.2-8.613,27.135,27.135,0,0,1,20.2,8.613A28.746,28.746,0,0,1,100,73.611a29.37,29.37,0,0,1-3.793,14.583l16.962,17.458a3.82,3.82,0,0,1,0,5.4ZM71.5,51.563A20.49,20.49,0,0,0,56.32,57.995a21.4,21.4,0,0,0-6.3,15.561,21.632,21.632,0,0,0,6.3,15.62,20.929,20.929,0,0,0,30.3,0,21.734,21.734,0,0,0,6.249-15.62,21.465,21.465,0,0,0-6.249-15.561A20.351,20.351,0,0,0,71.5,51.563Zm7.085-14.011v-.69A7.113,7.113,0,0,1,80.7,31.637a6.851,6.851,0,0,1,5.02-2.125H100a6.989,6.989,0,0,1,5.134,2.125,7.1,7.1,0,0,1,2.119,5.225v36.75h-.111a36.472,36.472,0,0,0-8.089-23.369,34.237,34.237,0,0,0-20.476-12.69ZM42.875,51.563v-29.4a7.113,7.113,0,0,1,2.119-5.225,6.851,6.851,0,0,1,5.02-2.125H64.3a6.8,6.8,0,0,1,5.077,2.125,7.21,7.21,0,0,1,2.065,5.225v14.7a33.807,33.807,0,0,0-16.07,3.963,36.811,36.811,0,0,0-12.5,10.738Zm0,43.986a36.322,36.322,0,0,0,12.5,10.853,33.807,33.807,0,0,0,16.07,3.963h7.142a7.261,7.261,0,0,1-2.065,5.166,6.718,6.718,0,0,1-5.077,2.181H7.171a6.767,6.767,0,0,1-5.02-2.181,7.233,7.233,0,0,1-2.119-5.225A7.131,7.131,0,0,1,2.1,105.139a6.818,6.818,0,0,1,5.077-2.125V7.348A7.164,7.164,0,0,1,9.293,2.182,6.767,6.767,0,0,1,14.313,0H28.6a6.718,6.718,0,0,1,5.077,2.181,7.261,7.261,0,0,1,2.065,5.166v95.665h7.142V95.548Z" transform="translate(1650.968 1318.999)" fill="#d0d8d9"/>
  </g>
</svg>
