<svg xmlns="http://www.w3.org/2000/svg" width="415" height="382" viewBox="0 0 415 382">
  <g id="Group_8" data-name="Group 8" transform="translate(-93 -1674)">
    <rect id="Rectangle_6" data-name="Rectangle 6" width="415" height="382" transform="translate(93 1674)" fill="#1d2025"/>
    <text id="_03" data-name="03" transform="translate(144 1818)" fill="#d0d9d8" font-size="108" font-family="SegoeUI, Segoe UI"><tspan x="0" y="0">03</tspan></text>
    <text id="CREATIVE_DESIGNING" data-name="CREATIVE
DESIGNING" transform="translate(144 1939)" fill="#d0d9d8" font-size="40" font-family="SegoeUI, Segoe UI"><tspan x="0" y="0">CREATIVE</tspan><tspan x="0" y="53">DESIGNING</tspan></text>
    <path id="painting" d="M58.647,108.1a61.426,61.426,0,0,1-29.438-7.23A55.878,55.878,0,0,1,7.846,81.177a50.827,50.827,0,0,1,0-54.258A55.816,55.816,0,0,1,29.21,7.23,61.451,61.451,0,0,1,58.647,0Q71.478,0,76.059,2.9T80.64,13.512a12.981,12.981,0,0,1-1.717,6.441,19.884,19.884,0,0,1-3.78,4.96,28.292,28.292,0,0,0-3.78,4.276,7.9,7.9,0,0,0-1.717,4.591q0,10.134,11,10.134a9.531,9.531,0,0,0,4.982-1.582,29.92,29.92,0,0,0,4.64-3.483,21.64,21.64,0,0,1,5.383-3.483,16.047,16.047,0,0,1,6.989-1.582q8.246,0,11.456,4.327T117.3,54.051a49.461,49.461,0,0,1-4.64,21.007,54.062,54.062,0,0,1-12.485,17.259,59.3,59.3,0,0,1-18.728,11.506A61.775,61.775,0,0,1,58.651,108.1ZM32.989,87.828a11.087,11.087,0,0,0,7.79-2.955,9.641,9.641,0,0,0,0-14.359,11.072,11.072,0,0,0-7.79-2.955,11.072,11.072,0,0,0-7.79,2.955,9.641,9.641,0,0,0,0,14.359A11.087,11.087,0,0,0,32.989,87.828ZM25.658,33.78a11.087,11.087,0,0,0-7.79,2.955,9.641,9.641,0,0,0,0,14.359,11.072,11.072,0,0,0,7.79,2.955,11.072,11.072,0,0,0,7.79-2.955,9.641,9.641,0,0,0,0-14.359A11.087,11.087,0,0,0,25.658,33.78ZM47.651,13.512a11.087,11.087,0,0,0-7.79,2.955,9.641,9.641,0,0,0,0,14.359,11.072,11.072,0,0,0,7.79,2.955,11.072,11.072,0,0,0,7.79-2.955,9.641,9.641,0,0,0,0-14.359A11.087,11.087,0,0,0,47.651,13.512Zm21.993,60.8a11.087,11.087,0,0,0-7.79,2.955,9.641,9.641,0,0,0,0,14.359,11.748,11.748,0,0,0,15.581,0,9.641,9.641,0,0,0,0-14.359A11.087,11.087,0,0,0,69.644,74.316ZM91.637,54.048A11.087,11.087,0,0,0,83.846,57a9.641,9.641,0,0,0,0,14.359,11.748,11.748,0,0,0,15.581,0,9.641,9.641,0,0,0,0-14.359A11.087,11.087,0,0,0,91.637,54.048Z" transform="translate(327.351 1733.901)" fill="#d0d8d9"/>
    <path id="bx-paint" d="M16.548,71.238c4.076,0,7.6-1.855,10.466-5.509,3.005-3.834,4.57-9.746,4.151-15.346L54.089,21.139a12.836,12.836,0,0,0-.005-15.073,7.28,7.28,0,0,0-11.81,0L18.493,36.4C13.373,36.981,8.3,41.6,8.3,49.784c0,1.036.057,2.008.112,2.937.214,3.519.293,4.842-3.939,7.54a3.548,3.548,0,0,0-1.471,2.812,3.818,3.818,0,0,0,1.145,3.05c.243.207,5.871,5.115,12.4,5.115ZM46.06,10.893a2.611,2.611,0,0,1,4.245.007,4.6,4.6,0,0,1,0,5.409l-20.537,26.2-4.245-5.416,20.537-26.2Zm-32.3,41.3c-.048-.765-.1-1.564-.1-2.411,0-5.275,3.867-6.668,5.916-6.668a4.829,4.829,0,0,1,2.58.7,8.74,8.74,0,0,1,3.632,6.474A15.391,15.391,0,0,1,23.227,60.9a8.17,8.17,0,0,1-6.68,3.506h0a12.814,12.814,0,0,1-5.552-1.457c2.9-3.324,3-6.793,2.762-10.756Z" transform="translate(410.001 1691.964)" fill="#d0d8d9"/>
  </g>
</svg>
