<svg id="Layer_1" data-name="Layer 1" xmlns="http://www.w3.org/2000/svg" viewBox="0 0 362.46 62.72"><defs><style>.cls-1{fill:#798c8a;}.cls-2{fill:#d0d9d8;}</style></defs><title>PARAOPS SVG</title><path class="cls-1" d="M96.57,213.22h19.72q8.77,0,13.76,4.48a15.21,15.21,0,0,1,5,11.86q0,7.78-4.86,12t-13.94,4.21H103.63v20.93H96.57ZM116.29,240q5.65,0,8.67-2.66t3-7.69a10,10,0,0,0-3-7.64,11.91,11.91,0,0,0-8.26-3H103.63v21Z" transform="translate(-60.71 -209.11)"/><path class="cls-1" d="M159.26,213.22h6.17l20.45,53.47h-7.23l-5.11-14h-22.4l-5,14h-7.27Zm12.19,33.71-9.11-25-9.07,25Z" transform="translate(-60.71 -209.11)"/><path class="cls-1" d="M210.74,213.22q9,0,13.9,4.11t4.87,12a14.4,14.4,0,0,1-2.7,8.7,16.13,16.13,0,0,1-7.51,5.54l12.56,22.7v.44h-7.57l-11.6-21.63H200.13v21.63H193V213.22Zm-10.61,26.07H211a12.26,12.26,0,0,0,8.36-2.71,9.22,9.22,0,0,0,3.1-7.27c0-3.31-1-5.84-3-7.61s-4.81-2.65-8.54-2.68H200.13Z" transform="translate(-60.71 -209.11)"/><path class="cls-1" d="M254.62,213.22h6.17l20.46,53.47H274l-5.1-14h-22.4l-5,14h-7.27Zm12.19,33.71-9.1-25-9.07,25Z" transform="translate(-60.71 -209.11)"/><path class="cls-2" d="M289.25,224.68a19.82,19.82,0,0,1,18.8-12.19,20.73,20.73,0,0,1,11.33,3.1,20,20,0,0,1,7.55,9,33.27,33.27,0,0,1,2.64,13.71v3.38a33.15,33.15,0,0,1-2.64,13.72,20.08,20.08,0,0,1-7.5,8.94,20.67,20.67,0,0,1-30.09-8.87,31.74,31.74,0,0,1-2.77-13.31V238.3A32.62,32.62,0,0,1,289.25,224.68Zm4.33,17q0,9.23,3.88,14.49a13.57,13.57,0,0,0,21.24.29q3.75-5,3.86-14.27v-4q0-9.51-3.82-14.6a12.6,12.6,0,0,0-10.69-5.08,12.47,12.47,0,0,0-10.52,5.08q-3.84,5.09-3.95,14.12Z" transform="translate(-60.71 -209.11)"/><path class="cls-2" d="M340.15,213.22h19.71q8.77,0,13.76,4.48a15.21,15.21,0,0,1,5,11.86q0,7.78-4.86,12t-13.94,4.21H347.2v20.93h-7.05ZM359.86,240q5.65,0,8.67-2.66t3-7.69a10,10,0,0,0-3-7.64,11.91,11.91,0,0,0-8.26-3H347.2v21Z" transform="translate(-60.71 -209.11)"/><path class="cls-2" d="M391.41,251.19a9.22,9.22,0,0,0,3.58,7.66q3.58,2.81,9.56,2.81c3.72,0,6.58-.76,8.56-2.28a7.41,7.41,0,0,0,3-6.21,7.23,7.23,0,0,0-2.75-6.07c-1.84-1.44-5.16-2.85-10-4.24q-9.07-2.61-13.2-6.41a12.26,12.26,0,0,1-4.13-9.38,12.91,12.91,0,0,1,5.05-10.45q5-4.14,13.13-4.13a21.91,21.91,0,0,1,9.82,2.13,16.17,16.17,0,0,1,6.68,5.87,15,15,0,0,1,2.37,8.19H416a9.71,9.71,0,0,0-3.08-7.62q-3.09-2.77-8.7-2.77-5.22,0-8.14,2.29a7.68,7.68,0,0,0-2.92,6.38,6.88,6.88,0,0,0,2.78,5.52q2.76,2.27,9.43,4.13a43.91,43.91,0,0,1,10.43,4.13,15.9,15.9,0,0,1,5.58,5.27,13.38,13.38,0,0,1,1.82,7.09,12.5,12.5,0,0,1-5.07,10.41q-5.06,3.92-13.55,3.91a25.08,25.08,0,0,1-10.28-2.11,17.27,17.27,0,0,1-7.36-5.78,14.1,14.1,0,0,1-2.59-8.34Z" transform="translate(-60.71 -209.11)"/><rect class="cls-1" width="5.36" height="50.99"/><rect class="cls-2" x="15.33" y="11.73" width="5.36" height="50.99"/></svg>