<svg id="Layer_1" data-name="Layer 1" xmlns="http://www.w3.org/2000/svg" viewBox="0 0 364.46 64.72"><defs><style>.cls-1{fill:none;stroke:#112233;stroke-miterlimit:10;stroke-width:2px;}
.cls-1{
	stroke-dasharray:1500;
		stroke-dashoffset:0;
		-webkit-animation: dash 4s linear forwards infinite;
		-o-animation: dash 4s linear forwards infinite;
		-moz-animation: dash 4s linear forwards infinite;
		animation: dash 4s linear forwards infinite;
}
	
	@-webkit-keyframes dash{
		from{
			stroke-dashoffset:1500;
		}
		to{
			stroke-dashoffset:0;
		}
	}
</style></defs><path class="cls-1" d="M96.57,19.22h19.72q8.77,0,13.76,4.48a15.21,15.21,0,0,1,5,11.86q0,7.78-4.86,12t-13.94,4.21h-12.6V72.69H96.57ZM116.29,46q5.65,0,8.67-2.66t3-7.69A10,10,0,0,0,125,28a11.91,11.91,0,0,0-8.26-3H103.62V46Z" transform="translate(-59.71 -14.11)"/><path class="cls-1" d="M159.26,19.22h6.17l20.45,53.47h-7.23l-5.11-14h-22.4l-5,14h-7.27Zm12.19,33.71-9.11-25-9.07,25Z" transform="translate(-59.71 -14.11)"/><path class="cls-1" d="M210.74,19.22q9,0,13.9,4.11t4.87,12a14.4,14.4,0,0,1-2.7,8.7,16.13,16.13,0,0,1-7.51,5.54l12.56,22.7v.44h-7.57l-11.6-21.63H200.13V72.69H193V19.22ZM200.13,45.29H211a12.26,12.26,0,0,0,8.36-2.71,9.22,9.22,0,0,0,3.1-7.27c0-3.31-1-5.84-3-7.61s-4.81-2.65-8.54-2.68H200.13Z" transform="translate(-59.71 -14.11)"/><path class="cls-1" d="M254.62,19.22h6.17l20.46,53.47H274l-5.1-14h-22.4l-5,14h-7.27Zm12.19,33.71-9.1-25-9.07,25Z" transform="translate(-59.71 -14.11)"/><path class="cls-1" d="M289.25,30.68a19.82,19.82,0,0,1,18.8-12.19,20.73,20.73,0,0,1,11.33,3.1,20,20,0,0,1,7.55,9,33.27,33.27,0,0,1,2.64,13.71v3.38a33.15,33.15,0,0,1-2.64,13.72,20.08,20.08,0,0,1-7.5,8.94,20.65,20.65,0,0,1-11.31,3.08,19.93,19.93,0,0,1-18.78-12,31.74,31.74,0,0,1-2.77-13.31V44.3A32.62,32.62,0,0,1,289.25,30.68Zm4.33,17q0,9.23,3.88,14.49a12.52,12.52,0,0,0,10.66,5.27q6.84,0,10.58-5t3.86-14.27v-4q0-9.51-3.82-14.6a12.6,12.6,0,0,0-10.69-5.08,12.47,12.47,0,0,0-10.52,5.08q-3.84,5.09-3.95,14.12Z" transform="translate(-59.71 -14.11)"/><path class="cls-1" d="M340.15,19.22h19.71q8.77,0,13.76,4.48a15.21,15.21,0,0,1,5,11.86q0,7.78-4.86,12t-13.94,4.21H347.2V72.69h-7.05ZM359.86,46q5.65,0,8.67-2.66t3-7.69a10,10,0,0,0-3-7.64,11.91,11.91,0,0,0-8.26-3H347.2V46Z" transform="translate(-59.71 -14.11)"/><path class="cls-1" d="M391.41,57.19A9.22,9.22,0,0,0,395,64.85q3.58,2.81,9.56,2.81c3.72,0,6.58-.76,8.56-2.28a7.41,7.41,0,0,0,3-6.21,7.23,7.23,0,0,0-2.75-6.07c-1.84-1.44-5.16-2.85-10-4.24q-9.07-2.61-13.2-6.41A12.26,12.26,0,0,1,386,33.07a12.91,12.91,0,0,1,5.05-10.45q5-4.14,13.13-4.13A21.91,21.91,0,0,1,414,20.62a16.17,16.17,0,0,1,6.68,5.87,15,15,0,0,1,2.37,8.19H416a9.71,9.71,0,0,0-3.08-7.62q-3.09-2.77-8.7-2.77-5.22,0-8.14,2.29A7.68,7.68,0,0,0,393.13,33a6.88,6.88,0,0,0,2.78,5.52q2.76,2.27,9.43,4.13a43.91,43.91,0,0,1,10.43,4.13A15.9,15.9,0,0,1,421.35,52a13.38,13.38,0,0,1,1.82,7.09,12.5,12.5,0,0,1-5.07,10.41q-5.06,3.92-13.55,3.91a25.08,25.08,0,0,1-10.28-2.11,17.27,17.27,0,0,1-7.36-5.78,14.1,14.1,0,0,1-2.59-8.34Z" transform="translate(-59.71 -14.11)"/></svg>